<?xml version="1.0" standalone="no"?>
<!DOCTYPE svg PUBLIC "-//W3C//DTD SVG 1.1//EN" "http://www.w3.org/Graphics/SVG/1.1/DTD/svg11.dtd" >
<svg xmlns="http://www.w3.org/2000/svg">
<metadata>Generated by IcoMoon</metadata>
<defs>
<font id="SB-Icons" horiz-adv-x="1024">
<font-face units-per-em="1024" ascent="960" descent="-64" />
<missing-glyph horiz-adv-x="1024" />
<glyph unicode="&#x20;" horiz-adv-x="512" d="" />
<glyph unicode="&#xe900;" glyph-name="respond" horiz-adv-x="864" d="M0 0h768v-64h-768v64zM467.705 799.031l45.254 45.254 237.586-237.586-45.254-45.254-237.586 237.586zM236.8 96h-236.8v236.8l608 608 236.8-236.8-608-608zM64 160h147.2l544 544-147.2 147.2-544-544v-147.2z" />
<glyph unicode="&#xe901;" glyph-name="view" d="M512 133.215c-254.104 0-458.904 284.444-466.489 295.822l-15.17 22.756 15.17 22.756c7.585 11.378 208.593 295.822 466.489 295.822 254.104 0 458.904-284.444 466.489-295.822l15.17-22.756-15.17-22.756c-7.585-11.378-212.385-295.822-466.489-295.822zM125.156 451.793c49.304-64.474 208.593-242.726 386.844-242.726s337.541 178.252 386.844 242.726c-49.304 64.474-208.593 242.726-386.844 242.726s-337.541-178.252-386.844-242.726zM512 258.37c-106.193 0-193.422 87.23-193.422 193.422s87.23 193.422 193.422 193.422c106.193 0 193.422-87.23 193.422-193.422s-87.23-193.422-193.422-193.422zM512 569.363c-64.474 0-117.57-53.096-117.57-117.57s53.096-117.57 117.57-117.57c64.474 0 117.57 53.096 117.57 117.57s-53.096 117.57-117.57 117.57z" />
<glyph unicode="&#xe902;" glyph-name="subscribe" horiz-adv-x="983" d="M770.048-55.808l-385.024 241.664-385.024-241.664v1015.808h770.048v-278.528h-81.92v196.608h-606.208v-786.432l303.104 188.416 303.104-188.416v163.84h81.92zM729.088 214.528c-139.264 0-253.952 114.688-253.952 253.952s114.688 253.952 253.952 253.952 253.952-114.688 253.952-253.952c0-139.264-114.688-253.952-253.952-253.952zM729.088 640.512c-94.208 0-172.032-77.824-172.032-172.032s77.824-172.032 172.032-172.032 172.032 77.824 172.032 172.032-77.824 172.032-172.032 172.032zM688.128 595.456h81.92v-253.952h-81.92v253.952zM602.112 509.44h253.952v-81.92h-253.952v81.92z" />
<glyph unicode="&#xe903;" glyph-name="heart" horiz-adv-x="1075" d="M532.48-17.92l-440.32 440.32c-122.88 122.88-122.88 322.56 0 445.44s317.44 122.88 440.32 5.12c122.88 117.76 322.56 117.76 440.32-5.12 122.88-122.88 122.88-322.56 0-445.44l-440.32-440.32zM317.44 857.6c-56.32 0-112.64-20.48-153.6-61.44-81.92-81.92-81.92-220.16 0-302.080l368.64-368.64 368.64 368.64c81.92 81.92 81.92 220.16 0 302.080s-220.16 81.92-302.080 0c-10.24-10.24-20.48-20.48-25.6-30.72l-40.96-66.56-40.96 61.44c-5.12 15.36-15.36 25.6-25.6 35.84-40.96 40.96-97.28 61.44-148.48 61.44z" />
<glyph unicode="&#xe904;" glyph-name="print-outline" d="M853.333 661.333h-85.333v213.333h-512v-213.333h-85.333v298.667h682.667zM1024 149.333h-256v85.333h170.667v426.667h-853.333v-426.667h170.667v-85.333h-256v597.333h1024zM853.333-64h-682.667v554.667h682.667v-554.667zM256 21.333h512v384h-512v-384z" />
<glyph unicode="&#xe905;" glyph-name="printer-glyph" d="M981.333 746.667h-128v170.667c0 23.552-19.115 42.667-42.667 42.667h-597.333c-23.552 0-42.667-19.115-42.667-42.667v-170.667h-128c-23.552 0-42.667-19.115-42.667-42.667v-512c0-23.552 19.115-42.667 42.667-42.667h128v-170.667c0-23.552 19.115-42.667 42.667-42.667h597.333c23.552 0 42.667 19.115 42.667 42.667v170.667h128c23.552 0 42.667 19.115 42.667 42.667v512c0 23.552-19.115 42.667-42.667 42.667zM256 874.667h512v-128h-512v128zM256 21.333v384h512v-213.248c0-0.043 0-0.085 0-0.085s0-0.085 0-0.085v-170.581h-512z" />
<glyph unicode="&#xe906;" glyph-name="pdf" horiz-adv-x="983" d="M344.064 288.256h8.192c8.192 0 16.384 0 20.48 8.192 4.096 4.096 8.192 8.192 8.192 16.384s0 12.288-8.192 16.384-8.192 4.096-20.48 4.096h-8.192v-45.056zM413.696 312.832c0-16.384-4.096-28.672-12.288-36.864s-24.576-12.288-40.96-12.288h-16.384v-53.248h-32.768v147.456h45.056c16.384 0 32.768-4.096 40.96-12.288 12.288-4.096 16.384-20.48 16.384-32.768v0zM528.384 288.256c0 32.768-12.288 49.152-40.96 49.152h-16.384v-94.208h12.288c32.768-4.096 45.056 8.192 45.056 45.056zM561.152 288.256c0-24.576-8.192-40.96-20.48-53.248s-32.768-20.48-57.344-20.48h-40.96v147.456h45.056c24.576 0 40.96-8.192 53.248-20.48 16.384-16.384 20.48-32.768 20.48-53.248zM626.688 214.528h-28.672v143.36h81.92v-24.576h-53.248v-36.864h49.152v-24.576h-49.152zM864.256 628.224h-249.856c-24.576 0-40.96 16.384-40.96 40.96v249.856c0 24.576 16.384 40.96 40.96 40.96s40.96-16.384 40.96-40.96v-208.896h208.896c24.576 0 40.96-16.384 40.96-40.96s-16.384-40.96-40.96-40.96zM864.256 407.040c-24.576 0-40.96 16.384-40.96 40.96v204.8l-225.28 225.28h-438.272v-430.080c0-24.576-16.384-40.96-40.96-40.96s-40.96 16.384-40.96 40.96v471.040c0 24.576 16.384 40.96 40.96 40.96h495.616c12.288 0 20.48-4.096 28.672-12.288l249.856-249.856c8.192-8.192 12.288-16.384 12.288-28.672v-221.184c0-24.576-16.384-40.96-40.96-40.96zM864.256-64h-745.472c-24.576 0-40.96 16.384-40.96 40.96v143.36c0 24.576 16.384 40.96 40.96 40.96s40.96-16.384 40.96-40.96v-102.4h663.552v102.4c0 24.576 16.384 40.96 40.96 40.96s40.96-16.384 40.96-40.96v-143.36c0-24.576-16.384-40.96-40.96-40.96zM942.080 407.040h-901.12c-24.576 0-40.96 16.384-40.96 40.96s16.384 40.96 40.96 40.96h901.12c24.576 0 40.96-16.384 40.96-40.96s-16.384-40.96-40.96-40.96zM942.080 79.36h-901.12c-24.576 0-40.96 16.384-40.96 40.96v327.68c0 12.288 4.096 20.48 12.288 28.672l77.824 77.824c16.384 16.384 40.96 16.384 57.344 0s16.384-40.96 0-57.344l-65.536-65.536v-270.336h819.2v270.336l-65.536 65.536c-16.384 16.384-16.384 40.96 0 57.344s40.96 16.384 57.344 0l77.824-77.824c8.192-8.192 12.288-16.384 12.288-28.672v-327.68c0-24.576-16.384-40.96-40.96-40.96z" />
<glyph unicode="&#xe907;" glyph-name="email-glyph" horiz-adv-x="1229" d="M1177.6 960h-1126.4c-30.72 0-51.2-20.48-51.2-51.2v-153.6c0-20.48 10.24-35.84 25.6-46.080l563.2-307.2c10.24-5.12 15.36-5.12 25.6-5.12s15.36 0 25.6 5.12l563.2 307.2c15.36 10.24 25.6 25.6 25.6 46.080v153.6c0 30.72-20.48 51.2-51.2 51.2zM686.080 314.88c-20.48-15.36-46.080-20.48-71.68-20.48s-51.2 5.12-71.68 20.48l-542.72 291.84v-619.52c0-30.72 20.48-51.2 51.2-51.2h1126.4c30.72 0 51.2 20.48 51.2 51.2v619.52l-542.72-291.84z" />
<glyph unicode="&#xe908;" glyph-name="email-outline" horiz-adv-x="1229" d="M614.4 325.12l-599.040 547.84 71.68 71.68 527.36-476.16 527.36 476.16 71.68-71.68zM1228.8-64h-1228.8v1024h1228.8v-1024zM102.4 38.4h1024v819.2h-1024v-819.2z" />
<glyph unicode="&#xe909;" glyph-name="download" d="M465.455 960v-744.727h93.091v744.727zM232.727 560.371l-65.825-65.825 345.098-345.098 345.098 345.098-65.825 65.825-279.273-279.273zM1024 29.091h-1024v-93.091h1024z" />
<glyph unicode="&#xe90a;" glyph-name="cloud" horiz-adv-x="1479" d="M1194.667-64h-864.711c-187.733 11.378-329.956 170.667-329.956 352.711 0 159.289 108.089 301.511 261.689 341.333 73.956 199.111 261.689 329.956 477.867 329.956 250.311 0 460.8-176.356 500.622-415.289 136.533-34.133 238.933-153.6 238.933-301.511 0-159.289-125.156-295.822-284.444-307.2v0zM739.556 846.222c-170.667 0-329.956-113.778-381.156-284.444l-11.378-34.133-34.133-5.689c-113.778-17.067-199.111-119.467-199.111-233.244 0-125.156 96.711-227.556 221.867-238.933h859.022c96.711 11.378 170.667 96.711 170.667 193.422 0 102.4-73.956 182.044-176.356 193.422l-45.511 5.689-5.689 45.511c-22.756 204.8-193.422 358.4-398.222 358.4z" />
<glyph unicode="&#xe90b;" glyph-name="settings" d="M512 275.782c-93.091 0-172.218 74.473-172.218 172.218 0 93.091 79.127 172.218 172.218 172.218s172.218-74.473 172.218-172.218c0-93.091-79.127-172.218-172.218-172.218zM512 527.127c-41.891 0-79.127-32.582-79.127-79.127s32.582-79.127 79.127-79.127 79.127 32.582 79.127 79.127-37.236 79.127-79.127 79.127zM605.091-64h-186.182c-27.927 0-46.545 18.618-46.545 46.545v93.091c0 4.655-4.655 9.309-9.309 13.964-9.309 4.655-13.964 0-13.964-4.655l-69.818-65.164c-18.618-18.618-46.545-18.618-65.164 0l-130.327 130.327c-18.618 18.618-18.618 46.545 0 65.164l65.164 65.164c4.655 4.655 4.655 9.309 4.655 13.964-4.655 13.964-9.309 13.964-13.964 13.964h-93.091c-27.927 0-46.545 18.618-46.545 46.545v186.182c0 27.927 18.618 46.545 46.545 46.545h93.091c4.655 0 9.309 0 13.964 9.309 0 4.655 0 9.309-4.655 13.964l-65.164 69.818c-18.618 18.618-18.618 46.545 0 65.164l130.327 130.327c18.618 18.618 46.545 18.618 65.164 0l65.164-65.164c4.655-4.655 9.309-4.655 13.964-4.655 13.964 4.655 13.964 9.309 13.964 13.964v93.091c0 27.927 18.618 46.545 46.545 46.545h186.182c27.927 0 46.545-18.618 46.545-46.545v-93.091c0-4.655 4.655-9.309 9.309-13.964 9.309-4.655 13.964 0 13.964 4.655l69.818 65.164c18.618 18.618 46.545 18.618 65.164 0l130.327-130.327c18.618-18.618 18.618-46.545 0-65.164l-65.164-65.164c-4.655-4.655-4.655-9.309-4.655-13.964 4.655-13.964 9.309-13.964 13.964-13.964h93.091c27.927 0 46.545-18.618 46.545-46.545v-186.182c0-27.927-18.618-46.545-46.545-46.545h-93.091c-4.655 0-9.309 0-13.964-9.309 0-4.655 0-9.309 4.655-13.964l65.164-65.164c18.618-18.618 18.618-46.545 0-65.164l-130.327-130.327c-18.618-18.618-46.545-18.618-65.164 0l-65.164 65.164c0 0-9.309 4.655-13.964 4.655s-9.309-4.655-9.309-13.964v-93.091c-4.655-32.582-23.273-51.2-51.2-51.2zM465.455 29.091h93.091v46.545c0 41.891 27.927 83.782 65.164 97.745 41.891 18.618 88.436 9.309 116.364-23.273l32.582-32.582 65.164 65.164-32.582 32.582c-32.582 32.582-37.236 74.473-23.273 116.364 18.618 41.891 55.855 69.818 102.4 69.818h46.545v93.091h-46.545c-41.891 0-83.782 27.927-97.745 65.164-18.618 41.891-9.309 83.782 23.273 116.364l32.582 32.582-65.164 65.164-32.582-32.582c-32.582-32.582-74.473-37.236-116.364-23.273-41.891 18.618-69.818 55.855-69.818 102.4v46.545h-93.091v-46.545c0-46.545-27.927-83.782-65.164-102.4-41.891-13.964-88.436-4.655-116.364 23.273l-37.236 37.236-65.164-65.164 32.582-32.582c32.582-32.582 37.236-74.473 23.273-116.364s-51.2-69.818-97.745-69.818h-46.545v-93.091h46.545c41.891 0 83.782-27.927 97.745-65.164 18.618-41.891 9.309-83.782-23.273-116.364l-32.582-32.582 65.164-65.164 32.582 32.582c32.582 32.582 74.473 37.236 116.364 23.273 41.891-18.618 69.818-55.855 69.818-102.4v-46.545z" />
<glyph unicode="&#xe90c;" glyph-name="tools" d="M819.2-64c-51.2 0-98.133 17.067-136.533 55.467l-230.4 230.4 59.733 59.733 230.4-230.4c42.667-42.667 110.933-42.667 153.6 0s42.667 110.933 0 153.6l-213.333 213.333 59.733 59.733 213.333-213.333c76.8-76.8 76.8-196.267 0-273.067-38.4-34.133-85.333-55.467-136.533-55.467zM248.198 641.715l60.348 60.339 141.797-141.817-60.348-60.339-141.797 141.817zM174.933 593.067l-166.4 166.4 179.2 179.2 166.4-166.4-42.667-136.533-136.533-42.667zM128 759.467l72.533-72.533 42.667 12.8 12.8 42.667-68.267 76.8-59.733-59.733zM192-42.667c-46.933 0-93.867 21.333-128 55.467s-51.2 81.067-51.2 128c0 51.2 21.333 102.4 59.733 136.533l388.267 345.6c-4.267 17.067-4.267 34.133-4.267 55.467-4.267 145.067 106.667 273.067 251.733 281.6 38.4 4.267 76.8 0 115.2-17.067l59.733-25.6-140.8-140.8 89.6-89.6 140.8 145.067 25.6-59.733c21.333-46.933 21.333-106.667 4.267-162.133-29.867-102.4-110.933-174.933-213.333-196.267-34.133-4.267-72.533-4.267-115.2 4.267l-345.6-396.8c-29.867-38.4-76.8-64-128-64 0 0-4.267 0-8.533 0zM716.8 874.667c-98.133-8.533-179.2-98.133-174.933-196.267 0-21.333 4.267-38.4 8.533-55.467l12.8-29.867-430.933-384c-21.333-17.067-34.133-46.933-34.133-76.8 0-25.6 8.533-51.2 25.6-68.267 21.333-21.333 46.933-29.867 76.8-29.867 25.6 0 51.2 12.8 68.267 34.133l384 430.933 25.6-8.533c25.6-8.533 55.467-12.8 102.4-8.533 64 12.8 119.467 64 140.8 136.533 4.267 12.8 4.267 21.333 8.533 34.133l-98.133-98.133-209.067 209.067 93.867 110.933z" />
<glyph unicode="&#xe90d;" glyph-name="phone-glyph" d="M725.393 368.173l-146.61-146.61-293.22 293.22 146.61 146.61c17.408 17.408 17.408 45.59 0 62.954l-222.609 222.609c-17.408 17.408-45.59 17.408-62.954 0l-146.61-146.61c0-492.722 371.534-864.345 864.345-864.345l146.61 146.61c17.408 17.408 17.408 45.59 0 62.954l-222.609 222.609c-17.363 17.363-45.59 17.363-62.954 0z" />
<glyph unicode="&#xe90e;" glyph-name="phone-outline" d="M827.733-64h-17.067c-448 0-810.667 362.667-810.667 810.667v17.067l170.667 170.667 273.067-273.067-128-128 281.6-281.6 128 128 273.067-273.067-170.667-170.667zM85.333 729.6c8.533-384 320-699.733 708.267-708.267l85.333 85.333-153.6 153.6-128-128-401.067 401.067 128 128-153.6 153.6-85.333-85.333z" />
<glyph unicode="&#xe90f;" glyph-name="mobile-phone-glyph" horiz-adv-x="768" d="M640 960h-512c-70.571 0-128-57.429-128-128v-768c0-70.571 57.429-128 128-128h512c70.571 0 128 57.429 128 128v768c0 70.571-57.429 128-128 128zM384 21.333c-23.552 0-42.667 19.115-42.667 42.667s19.115 42.667 42.667 42.667c23.552 0 42.667-19.115 42.667-42.667s-19.115-42.667-42.667-42.667zM682.667 234.667c0-23.552-19.115-42.667-42.667-42.667h-512c-23.552 0-42.667 19.115-42.667 42.667v554.667c0 23.552 19.115 42.667 42.667 42.667h512c23.552 0 42.667-19.115 42.667-42.667v-554.667z" />
<glyph unicode="&#xe910;" glyph-name="mobile-phone-outline" horiz-adv-x="768" d="M640-64h-512c-72.533 0-128 55.467-128 128v768c0 72.533 55.467 128 128 128h512c72.533 0 128-55.467 128-128v-768c0-72.533-55.467-128-128-128zM128 874.667c-25.6 0-42.667-17.067-42.667-42.667v-768c0-25.6 17.067-42.667 42.667-42.667h512c25.6 0 42.667 17.067 42.667 42.667v768c0 25.6-17.067 42.667-42.667 42.667h-512zM426.667 149.333c0-23.564-19.103-42.667-42.667-42.667s-42.667 19.103-42.667 42.667c0 23.564 19.103 42.667 42.667 42.667s42.667-19.103 42.667-42.667z" />
<glyph unicode="&#xe911;" glyph-name="bible" horiz-adv-x="1268" d="M1267.81-64h-1267.81v984.99h165.79v-97.524h-68.267v-789.943h1072.762v789.943h-68.267v97.524h165.79zM682.667 87.162h-97.524c0 14.629-9.752 24.381-24.381 24.381h-414.476v824.076h414.476c29.257 0 53.638-9.752 73.143-24.381 19.505 14.629 43.886 24.381 73.143 24.381h414.476v-824.076h-414.476c-14.629 0-24.381-9.752-24.381-24.381zM243.81 209.067h316.952c29.257 0 53.638-9.752 73.143-24.381 19.505 14.629 43.886 24.381 73.143 24.381h316.952v629.029h-316.952c-14.629 0-24.381-9.752-24.381-24.381h-97.524c0 14.629-9.752 24.381-24.381 24.381h-316.952v-629.029zM585.143 813.714h97.524v-682.667h-97.524v682.667z" />
<glyph unicode="&#xe912;" glyph-name="map" d="M0-34.133v857.6l384 93.867 256-85.333 384 93.867v-857.6l-384-89.6-256 85.333-384-98.133zM384 149.333l256-85.333 298.667 72.533v682.667l-298.667-72.533-256 85.333-298.667-76.8v-678.4l298.667 72.533zM580.511 532.475l60.339 60.339 232.306-232.306-60.339-60.339-232.306 232.306zM580.511 363.525l232.306 232.306 60.339-60.339-232.306-232.306-60.339 60.339zM170.667 490.667h128v-85.333h-128v85.333zM384 490.667h128v-85.333h-128v85.333z" />
<glyph unicode="&#xe913;" glyph-name="computer-outline" d="M469.333 192h85.333v-256h-85.333v256zM213.333 21.333h597.333v-85.333h-597.333v85.333zM554.667 746.667c0-23.564-19.103-42.667-42.667-42.667s-42.667 19.103-42.667 42.667c0 23.564 19.103 42.667 42.667 42.667s42.667-19.103 42.667-42.667zM896 106.667h-768c-72.533 0-128 55.467-128 128v597.333c0 72.533 55.467 128 128 128h768c72.533 0 128-55.467 128-128v-597.333c0-72.533-55.467-128-128-128zM128 874.667c-25.6 0-42.667-17.067-42.667-42.667v-597.333c0-25.6 17.067-42.667 42.667-42.667h768c25.6 0 42.667 17.067 42.667 42.667v597.333c0 25.6-17.067 42.667-42.667 42.667h-768zM0 362.667h1024v-85.333h-1024v85.333z" />
<glyph unicode="&#xe914;" glyph-name="computer-glyph" d="M554.667 746.667c0-23.564-19.103-42.667-42.667-42.667s-42.667 19.103-42.667 42.667c0 23.564 19.103 42.667 42.667 42.667s42.667-19.103 42.667-42.667zM896 960h-768c-70.571 0-128-57.429-128-128v-597.333c0-70.571 57.429-128 128-128h298.667v-85.333h-170.667c-23.552 0-42.667-19.115-42.667-42.667s19.115-42.667 42.667-42.667h512c23.552 0 42.667 19.115 42.667 42.667s-19.115 42.667-42.667 42.667h-170.667v85.333h298.667c70.571 0 128 57.429 128 128v597.333c0 70.571-57.429 128-128 128zM938.667 320h-853.333v512c0 23.552 19.115 42.667 42.667 42.667h768c23.552 0 42.667-19.115 42.667-42.667v-512z" />
<glyph unicode="&#xe915;" glyph-name="glasses" horiz-adv-x="1240" d="M123.958 291.705l-97.011 43.116 220.968 544.337c21.558 48.505 64.674 80.842 118.568 80.842h102.4v-107.789h-102.4c-10.779 0-16.168-5.389-21.558-16.168l-220.968-544.337zM1115.621 291.705l-226.358 544.337c0 10.779-10.779 16.168-16.168 16.168h-102.4v107.789h102.4c53.895 0 97.011-32.337 118.568-80.842l226.358-544.337-102.4-43.116zM786.863 259.368h-107.789c0 32.337-26.947 59.284-59.284 59.284s-59.284-26.947-59.284-59.284h-107.789c0 91.621 75.453 167.074 167.074 167.074s167.074-75.453 167.074-167.074zM280.253-64c-156.295 0-280.253 129.347-280.253 280.253s123.958 280.253 280.253 280.253 280.253-129.347 280.253-280.253-123.958-280.253-280.253-280.253zM280.253 394.105c-97.011 0-172.463-80.842-172.463-177.853s75.453-172.463 172.463-172.463c97.011 0 172.463 80.842 172.463 172.463s-75.453 177.853-172.463 177.853zM959.326-64c-156.295 0-280.253 129.347-280.253 280.253s123.958 280.253 280.253 280.253 280.253-123.958 280.253-280.253-123.958-280.253-280.253-280.253zM959.326 394.105c-97.011 0-172.463-80.842-172.463-172.463s75.453-177.853 172.463-177.853 172.463 80.842 172.463 172.463-75.453 177.853-172.463 177.853z" />
<glyph unicode="&#xe916;" glyph-name="info" d="M512 960c-282.325 0-512-229.675-512-512s229.675-512 512-512c282.325 0 512 229.675 512 512s-229.675 512-512 512zM512 704c23.552 0 42.667-19.115 42.667-42.667s-19.115-42.667-42.667-42.667c-23.552 0-42.667 19.115-42.667 42.667s19.115 42.667 42.667 42.667zM640 192h-256v85.333h85.333v170.667h-85.333v85.333h128c23.595 0 42.667-19.115 42.667-42.667v-213.333h85.333v-85.333z" />
<glyph unicode="&#xe917;" glyph-name="alert" horiz-adv-x="1073" d="M1067.154 7.485l-487.619 926.476c-16.872 32.037-69.437 32.037-86.309 0l-487.619-926.476c-7.948-15.116-7.412-33.304 1.365-47.884 8.875-14.677 24.674-23.601 41.789-23.601h975.238c17.115 0 32.914 8.923 41.74 23.552s9.362 32.817 1.414 47.933zM536.381 82.286c-26.917 0-48.762 21.845-48.762 48.762s21.845 48.762 48.762 48.762c26.917 0 48.762-21.845 48.762-48.762s-21.845-48.762-48.762-48.762zM585.143 277.333h-97.524v341.333h97.524v-341.333z" />
<glyph unicode="&#xe918;" glyph-name="conversation" d="M938.667-46.933l-230.4 115.2c-170.667-21.333-332.8 42.667-409.6 162.133l72.533 46.933c59.733-89.6 196.267-140.8 337.067-119.467l12.8 4.267 132.267-68.267v123.733l17.067 12.8c46.933 38.4 68.267 85.333 68.267 136.533s-25.6 98.133-72.533 140.8l55.467 64c68.267-55.467 102.4-128 102.4-204.8 0-68.267-29.867-136.533-85.333-187.733v-226.133zM85.333 81.067v277.333c-55.467 64-85.333 136.533-85.333 217.6 0 213.333 209.067 384 469.333 384s469.333-170.667 469.333-384c0-213.333-209.067-384-469.333-384-42.667 0-85.333 4.267-132.267 17.067l-251.733-128zM469.333 874.667c-213.333 0-384-132.267-384-298.667 0-64 25.6-123.733 72.533-174.933l12.8-12.8v-170.667l157.867 81.067 17.067-4.267c38.4-12.8 81.067-17.067 123.733-17.067 213.333 0 384 132.267 384 298.667s-170.667 298.667-384 298.667z" />
<glyph unicode="&#xe919;" glyph-name="chat" horiz-adv-x="1103" d="M988.554-44.308l-311.138 129.969c-47.262-11.815-94.523-15.754-137.846-15.754-295.385-3.938-539.569 200.862-539.569 448.985s240.246 441.108 543.508 441.108 543.508-192.985 543.508-441.108c0-102.4-39.385-200.862-118.154-279.631l19.692-283.569zM685.292 164.431l212.677-90.585-11.815 192.985 11.815 11.815c70.892 66.954 106.338 149.662 106.338 236.308 0 204.8-204.8 362.338-464.738 362.338-256 3.938-460.8-157.538-460.8-358.4 0-204.8 208.738-370.215 464.738-370.215 39.385 0 82.708 3.938 133.908 15.754h7.877zM502.81 719.316h78.769v-401.723h-78.769v401.723zM341.333 557.839h401.723v-78.769h-401.723v78.769z" />
<glyph unicode="&#xe91a;" glyph-name="location-glyph" horiz-adv-x="801" d="M400.696 960c-195.896 0-400.696-151.374-400.696-400.696 0-235.965 356.174-596.591 369.53-609.948 8.904-8.904 17.809-13.357 31.165-13.357s22.261 4.452 31.165 13.357c13.357 13.357 369.53 373.983 369.53 609.948 0 249.322-204.8 400.696-400.696 400.696zM400.696 425.739c-75.687 0-133.565 57.878-133.565 133.565s57.878 133.565 133.565 133.565c75.687 0 133.565-57.878 133.565-133.565s-57.878-133.565-133.565-133.565z" />
<glyph unicode="&#xe91b;" glyph-name="location-outline" horiz-adv-x="768" d="M384-38.4l-29.867 29.867c-12.8 12.8-354.133 358.4-354.133 584.533 0 238.933 196.267 384 384 384s384-145.067 384-384c0-226.133-341.333-571.733-354.133-584.533l-29.867-29.867zM384 874.667c-145.067 0-298.667-106.667-298.667-298.667 0-140.8 192-379.733 298.667-494.933 106.667 115.2 298.667 349.867 298.667 494.933 0 192-153.6 298.667-298.667 298.667zM384 405.333c-93.867 0-170.667 76.8-170.667 170.667s76.8 170.667 170.667 170.667c93.867 0 170.667-76.8 170.667-170.667s-76.8-170.667-170.667-170.667zM384 661.333c-46.933 0-85.333-38.4-85.333-85.333s38.4-85.333 85.333-85.333c46.933 0 85.333 38.4 85.333 85.333s-38.4 85.333-85.333 85.333z" />
<glyph unicode="&#xe91c;" glyph-name="controls" d="M469.333 832h554.667v-85.333h-554.667v85.333zM0 832h213.333v-85.333h-213.333v85.333zM384 618.667h-256v341.333h256v-341.333zM213.333 704h85.333v170.667h-85.333v-170.667zM896 490.667h128v-85.333h-128v85.333zM0 490.667h640v-85.333h-640v85.333zM810.667 277.333h-256v341.333h256v-341.333zM640 362.667h85.333v170.667h-85.333v-170.667zM469.333 149.333h554.667v-85.333h-554.667v85.333zM0 149.333h213.333v-85.333h-213.333v85.333zM384-64h-256v341.333h256v-341.333zM213.333 21.333h85.333v170.667h-85.333v-170.667z" />
<glyph unicode="&#xe91d;" glyph-name="badge" horiz-adv-x="896" d="M294.4-54.4l-96 163.2-188.8-28.8 153.6 323.2 57.6-25.6-102.4-217.6 112 19.2 57.6-99.2 99.2 211.2 57.6-28.8zM592-54.4l-147.2 316.8 57.6 28.8 99.2-211.2 57.6 96 112-16-102.4 217.6 57.6 25.6 153.6-323.2-188.8 28.8zM457.6 243.2c-198.4 0-361.6 163.2-361.6 358.4 0 198.4 163.2 358.4 361.6 358.4s358.4-160 358.4-358.4c0-195.2-163.2-358.4-358.4-358.4zM457.6 896c-163.2 0-297.6-131.2-297.6-294.4s131.2-294.4 294.4-294.4c163.2 0 294.4 131.2 294.4 294.4s-131.2 294.4-291.2 294.4zM598.4 380.8l-144 76.8-144-73.6 28.8 160-115.2 112 160 22.4 73.6 144 70.4-144 160-25.6-118.4-112 28.8-160zM454.4 528l57.6-32-9.6 64 48 44.8-64 9.6-28.8 60.8-28.8-57.6-64-9.6 48-44.8-12.8-64 54.4 28.8z" />
<glyph unicode="&#xe91e;" glyph-name="search-big" d="M638.167 261.47l60.339 60.339 298.679-298.679-60.339-60.339-298.679 298.679zM426.667 106.667c-234.667 0-426.667 192-426.667 426.667s192 426.667 426.667 426.667c234.667 0 426.667-192 426.667-426.667s-192-426.667-426.667-426.667zM426.667 874.667c-187.733 0-341.333-153.6-341.333-341.333s153.6-341.333 341.333-341.333 341.333 153.6 341.333 341.333-153.6 341.333-341.333 341.333z" />
<glyph unicode="&#xe91f;" glyph-name="search" horiz-adv-x="964" d="M764.988 279.341c54.212 72.282 84.329 156.612 84.329 252.988 0 234.918-186.729 427.671-421.647 427.671s-427.671-192.753-427.671-427.671c0-234.918 192.753-427.671 427.671-427.671 96.376 0 186.729 30.118 252.988 84.329l180.706-180.706c12.047-12.047 30.118-18.071 42.165-18.071s30.118 6.024 42.165 18.071c24.094 24.094 24.094 60.235 0 84.329l-180.706 186.729zM427.671 231.153c-168.659 0-307.2 132.518-307.2 301.176s138.541 307.2 307.2 307.2c168.659 0 307.2-138.541 307.2-307.2s-138.541-301.176-307.2-301.176z" />
<glyph unicode="&#xe920;" glyph-name="copy" d="M1024-64h-744.727v372.364h93.091v-279.273h558.545v558.545h-279.273v93.091h372.364zM744.727 215.273h-744.727v744.727h744.727v-744.727zM93.091 308.364h558.545v558.545h-558.545v-558.545z" />
<glyph unicode="&#xe921;" glyph-name="television" d="M512 664.178c-11.378 0-22.756 3.793-30.341 15.17l-125.156 155.496c-15.17 15.17-11.378 41.719 3.793 53.096 18.963 15.17 41.719 11.378 53.096-3.793l125.156-159.289c11.378-15.17 11.378-41.719-7.585-53.096-3.793-7.585-11.378-7.585-18.963-7.585zM512 664.178c-7.585 0-18.963 3.793-26.548 7.585-15.17 15.17-18.963 37.926-3.793 53.096l189.63 219.97c15.17 15.17 37.926 18.963 53.096 3.793s18.963-37.926 3.793-53.096l-189.63-219.97c-3.793-7.585-15.17-11.378-26.548-11.378zM986.074-64h-948.148c-22.756 0-37.926 15.17-37.926 37.926v728.178c0 22.756 15.17 37.926 37.926 37.926h948.148c22.756 0 37.926-15.17 37.926-37.926v-728.178c0-22.756-15.17-37.926-37.926-37.926zM75.852 11.852h872.296v652.326h-872.296v-652.326zM731.97 61.156h-568.889c-22.756 0-37.926 15.17-37.926 37.926v474.074c0 22.756 15.17 37.926 37.926 37.926h568.889c22.756 0 37.926-15.17 37.926-37.926v-474.074c0-18.963-15.17-37.926-37.926-37.926zM201.007 137.007h493.037v398.222h-493.037v-398.222zM860.919 474.548c-22.756 0-37.926 15.17-37.926 37.926v60.681c0 22.756 15.17 37.926 37.926 37.926s37.926-15.17 37.926-37.926v-64.474c0-18.963-18.963-34.133-37.926-34.133zM860.919 61.156c-22.756 0-37.926 15.17-37.926 37.926v254.104c0 22.756 15.17 37.926 37.926 37.926s37.926-15.17 37.926-37.926v-254.104c0-18.963-18.963-37.926-37.926-37.926z" />
<glyph unicode="&#xe922;" glyph-name="volunteer" horiz-adv-x="948" d="M64.474 421.452c-91.022 136.533-75.852 314.785 37.926 428.563 106.193 102.4 261.689 128.948 390.637 64.474l-30.341-68.267c-102.4 49.304-223.763 30.341-303.407-49.304-87.23-87.23-102.4-227.556-30.341-333.748l-64.474-41.719zM819.2 341.807l-53.096 53.096 26.548 26.548c49.304 53.096 79.644 121.363 75.852 197.215 0 68.267-26.548 132.741-75.852 182.044-106.193 102.4-269.274 102.4-371.674 0l-166.874-170.667c30.341 0 72.059 7.585 113.778 53.096l18.963 18.963 26.548-15.17c0 0 166.874-91.022 250.311-7.585l26.548 26.548 53.096-53.096-26.548-26.548c-102.4-102.4-254.104-45.511-314.785-18.963-98.607-83.437-197.215-53.096-238.933-26.548l-37.926 26.548 246.519 246.519c132.741 132.741 341.333 132.741 477.867 0 60.681-64.474 94.815-147.911 94.815-235.141 0-94.815-37.926-182.044-102.4-250.311l-22.756-26.548zM769.896 228.030c-26.548 0-49.304 11.378-68.267 30.341l53.096 53.096c7.585-7.585 22.756-7.585 30.341 0 3.793 3.793 7.585 11.378 7.585 15.17s0 7.585-3.793 11.378l-3.793 3.793-219.97 235.141 56.889 53.096 219.97-235.141c18.963-15.17 26.548-37.926 30.341-64.474 0-26.548-11.378-53.096-30.341-72.059s-45.511-30.341-72.059-30.341zM527.17-37.452c-26.548 0-49.304 11.378-68.267 30.341l-60.681 60.681 53.096 53.096 60.681-60.681c7.585-7.585 22.756-7.585 30.341 0s7.585 11.378 7.585 15.17-3.793 11.378-7.585 15.17l-83.437 87.23 53.096 53.096 87.23-87.23c18.963-18.963 30.341-41.719 30.341-68.267s-11.378-49.304-30.341-68.267c-18.963-18.963-45.511-30.341-72.059-30.341v0zM603.022 49.778c-26.548 0-49.304 11.378-68.267 30.341l53.096 53.096c7.585-7.585 22.756-7.585 30.341 0s7.585 22.756 0 30.341l53.096 53.096c37.926-37.926 37.926-98.607 0-140.326-18.963-15.17-41.719-26.548-68.267-26.548zM678.874 144.593c-26.548 0-49.304 11.378-68.267 30.341l-102.4 102.4 53.096 53.096 102.4-102.4c7.585-7.585 22.756-7.585 30.341 0s7.585 11.378 7.585 15.17-3.793 11.378-7.585 15.17l-102.4 102.4 53.096 53.096 102.4-102.4c18.963-18.963 30.341-41.719 30.341-68.267s-11.378-49.304-30.341-68.267c-18.963-18.963-41.719-30.341-68.267-30.341zM345.126 34.607c-26.548 0-49.304 11.378-68.267 30.341-37.926 37.926-37.926 98.607 0 140.326l64.474 64.474c37.926 37.926 102.4 37.926 140.326 0v0 0 0c18.963-18.963 30.341-41.719 30.341-68.267s-11.378-49.304-30.341-68.267l-64.474-68.267c-18.963-18.963-45.511-30.341-72.059-30.341zM413.393 220.444c-7.585 0-11.378-3.793-15.17-7.585l-64.474-64.474c-7.585-7.585-7.585-22.756 0-30.341s22.756-7.585 30.341 0l64.474 64.474c3.793 3.793 7.585 11.378 7.585 15.17s-3.793 11.378-7.585 15.17v0c-3.793 7.585-11.378 7.585-15.17 7.585zM174.459 171.141c-26.548 0-49.304 11.378-68.267 30.341s-30.341 41.719-30.341 68.267 11.378 49.304 30.341 68.267l64.474 64.474c37.926 37.926 98.607 37.926 140.326 0v0c37.926-37.926 37.926-98.607 0-140.326l-68.267-60.681c-15.17-18.963-41.719-30.341-68.267-30.341zM238.933 360.77c-7.585 0-11.378-3.793-15.17-7.585l-64.474-64.474c-3.793-7.585-7.585-11.378-7.585-18.963s3.793-11.378 7.585-15.17 22.756-7.585 30.341 0l64.474 64.474c11.378 11.378 11.378 22.756 3.793 34.133-7.585 3.793-11.378 7.585-18.963 7.585zM106.193 273.541c-26.548 0-49.304 11.378-68.267 30.341s-30.341 41.719-30.341 68.267c0 26.548 11.378 49.304 30.341 68.267l64.474 64.474c37.926 37.926 98.607 37.926 140.326 0v0c37.926-37.926 37.926-98.607 0-140.326l-64.474-64.474c-22.756-15.17-45.511-26.548-72.059-26.548zM170.667 463.17c-7.585 0-11.378-3.793-15.17-7.585l-64.474-64.474c-3.793-3.793-7.585-11.378-7.585-15.17s0-11.378 7.585-15.17c7.585-7.585 18.963-15.17 30.341 0l64.474 64.474c7.585 7.585 7.585 22.756 0 30.341-3.793 3.793-7.585 7.585-15.17 7.585zM276.859 102.874c-26.548 0-49.304 11.378-68.267 30.341s-30.341 41.719-30.341 68.267c0 26.548 11.378 49.304 30.341 68.267l64.474 64.474c22.756 22.756 53.096 30.341 79.644 30.341 22.756 0 45.511-11.378 60.681-30.341 37.926-37.926 37.926-98.607 0-140.326l-64.474-64.474c-18.963-15.17-45.511-26.548-72.059-26.548zM345.126 292.504c-7.585 0-15.17-3.793-18.963-7.585l-64.474-64.474c-3.793-3.793-7.585-11.378-7.585-15.17s0-11.378 7.585-15.17c7.585-7.585 18.963-15.17 30.341 0l64.474 64.474c7.585 7.585 7.585 22.756 0 30.341l-3.793 3.793c3.793 0 0 0-7.585 3.793 0 0 0 0 0 0z" />
<glyph unicode="&#xe923;" glyph-name="friends" horiz-adv-x="1063" d="M1024 266.831h-295.385c-23.631 0-39.385 15.754-39.385 39.385s15.754 39.385 39.385 39.385h256v133.908c0 19.692-11.815 39.385-31.508 51.2l-102.4 55.138c-19.692 11.815-27.569 35.446-15.754 55.138s35.446 27.569 55.138 15.754l102.4-55.138c43.323-27.569 70.892-74.831 70.892-122.092v-173.292c0-19.692-15.754-39.385-39.385-39.385zM744.369 522.831c-55.138 0-110.277 23.631-145.723 70.892-11.815 15.754-11.815 43.323 7.877 55.138 15.754 11.815 43.323 11.815 55.138-3.938 19.692-27.569 51.2-39.385 82.708-39.385 59.077 0 110.277 47.262 110.277 106.338v63.015c0 59.077-47.262 106.338-110.277 106.338s-110.277-47.262-110.277-106.338v-7.877c0-23.631-15.754-39.385-39.385-39.385s-39.385 15.754-39.385 39.385v7.877c0 102.4 82.708 185.108 189.046 185.108s189.046-82.708 189.046-185.108v-66.954c0-102.4-86.646-185.108-189.046-185.108zM827.077-32.492h-787.692c-23.631 0-39.385 15.754-39.385 39.385v177.231c0 47.262 23.631 90.585 63.015 114.215l212.677 141.785c19.692 11.815 43.323 7.877 55.138-11.815s7.877-43.323-11.815-55.138l-216.615-141.785c-15.754-11.815-23.631-27.569-23.631-47.262v-137.846h708.923v137.846c0 19.692-7.877 39.385-27.569 47.262l-212.677 141.785c-19.692 11.815-23.631 35.446-11.815 55.138s35.446 23.631 55.138 11.815l212.677-141.785c39.385-27.569 63.015-66.954 63.015-114.215v-177.231c0-23.631-15.754-39.385-39.385-39.385zM433.231 325.908c-129.969 0-236.308 106.338-236.308 236.308v94.523c0 129.969 106.338 236.308 236.308 236.308s236.308-106.338 236.308-236.308v-98.462c0-126.031-106.338-232.369-236.308-232.369zM433.231 814.277c-86.646 0-157.538-70.892-157.538-157.538v-98.462c0-86.646 70.892-157.538 157.538-157.538s157.538 70.892 157.538 157.538v98.462c0 86.646-70.892 157.538-157.538 157.538z" />
<glyph unicode="&#xe924;" glyph-name="travel" horiz-adv-x="720" d="M332.108 932.324h55.351v-711.265h-55.351v711.265zM235.243 212.757c-11.070 24.908-218.638 600.562 113.47 744.476l22.141-49.816c-285.059-124.541-85.795-669.751-85.795-675.286l-49.816-19.373zM484.324 212.757l-52.584 19.373c2.768 5.535 199.265 550.746-85.795 675.286l22.141 49.816c334.876-143.914 127.308-719.568 116.238-744.476zM487.092-64h-254.616v185.427h254.616v-185.427zM287.827-8.649h143.914v74.724h-143.914v-74.724zM506.465 193.384h-293.362l-8.303 8.303c-8.303 11.070-204.8 238.011-204.8 406.832 0 188.195 168.822 351.481 359.784 351.481s359.784-163.286 359.784-351.481c0-168.822-196.497-395.762-207.568-406.832l-5.535-8.303zM492.627 221.059v0 0zM240.778 248.735h240.778c35.978 44.281 185.427 229.708 185.427 359.784-2.768 154.984-146.681 296.13-307.2 296.13s-304.432-141.146-304.432-296.13c0-130.076 146.681-315.503 185.427-359.784z" />
<glyph unicode="&#xe925;" glyph-name="lock-opened" horiz-adv-x="780" d="M224.305 574.781h-97.524v126.781c0 146.286 117.029 258.438 263.314 258.438 102.4 0 199.924-58.514 238.933-156.038l-87.771-39.010c-24.381 58.514-87.771 97.524-151.162 97.524-92.648 0-165.79-73.143-165.79-160.914v-126.781zM390.095 189.562c-73.143 0-136.533 58.514-136.533 131.657s63.39 131.657 136.533 131.657 136.533-58.514 136.533-131.657-63.39-131.657-136.533-131.657zM390.095 355.352c-19.505 0-39.010-14.629-39.010-34.133s14.629-34.133 39.010-34.133 39.010 14.629 39.010 34.133-19.505 34.133-39.010 34.133zM341.333 287.086h97.524v-180.419h-97.524v180.419zM780.19-64h-780.19v687.543h780.19v-687.543zM97.524 33.524h585.143v492.495h-585.143v-492.495z" />
<glyph unicode="&#xe926;" glyph-name="lock" horiz-adv-x="780" d="M653.41 526.019h-526.629v175.543c0 146.286 117.029 258.438 263.314 258.438s263.314-112.152 263.314-258.438v-175.543zM224.305 623.543h331.581v78.019c0 87.771-73.143 160.914-165.79 160.914s-165.79-73.143-165.79-160.914v-78.019zM780.19-64h-780.19v687.543h780.19v-687.543zM97.524 33.524h585.143v492.495h-585.143v-492.495zM390.095 189.562c-73.143 0-136.533 58.514-136.533 131.657s63.39 131.657 136.533 131.657 136.533-58.514 136.533-131.657-63.39-131.657-136.533-131.657zM390.095 355.352c-19.505 0-39.010-14.629-39.010-34.133s14.629-34.133 39.010-34.133 39.010 14.629 39.010 34.133-19.505 34.133-39.010 34.133zM341.333 287.086h97.524v-180.419h-97.524v180.419z" />
<glyph unicode="&#xe927;" glyph-name="curriculum" horiz-adv-x="1071" d="M325.818 168.727h-325.818v744.727h325.818v-744.727zM93.091 261.818h139.636v558.545h-139.636v-558.545zM325.818-17.455h-325.818v279.273h325.818v-279.273zM93.091 75.636h139.636v93.091h-139.636v-93.091zM558.545 168.727h-325.818v744.727h325.818v-744.727zM325.818 261.818h139.636v558.545h-139.636v-558.545zM558.545-17.455h-325.818v279.273h325.818v-279.273zM325.818 75.636h139.636v93.091h-139.636v-93.091zM660.945 154.764l-195.491 716.8 316.509 83.782 190.836-721.455-311.855-79.127zM581.818 806.4l144.291-539.927 134.982 37.236-144.291 539.927-134.982-37.236zM712.145-26.764l-74.473 269.964 316.509 83.782 74.473-269.964-316.509-83.782zM754.036 178.036l23.273-88.436 134.982 37.236-23.273 88.436-134.982-37.236z" />
<glyph unicode="&#xe928;" glyph-name="calendar" d="M1024-64h-1024v682.667h85.333v-597.333h853.333v597.333h85.333zM1024 533.333h-1024v341.333h1024v-341.333zM85.333 618.667h853.333v170.667h-853.333v-170.667zM469.333 960h85.333v-256h-85.333v256zM213.333 960h85.333v-256h-85.333v256zM725.333 960h85.333v-256h-85.333v256z" />
<glyph unicode="&#xe929;" glyph-name="profile-incomplete" horiz-adv-x="1152" d="M420.571 287.086v-29.257c0-87.771 69.486-160.914 157.257-160.914s157.257 73.143 157.257 160.914v29.257c0 87.771-69.486 160.914-157.257 160.914s-157.257-73.143-157.257-160.914zM720.457 126.171c-36.571-43.886-87.771-69.486-142.629-69.486s-106.057 25.6-142.629 65.829l-124.343-69.486c-3.657-3.657-7.314-7.314-7.314-14.629v-87.771c0-7.314 7.314-14.629 14.629-14.629h519.314c7.314 0 14.629 7.314 14.629 14.629v91.429c0 3.657-3.657 10.971-7.314 14.629l-124.343 69.486zM442.514 539.429l135.314 73.143 135.314-73.143-29.257 153.6 109.714 106.057-149.943 21.943-65.829 138.971-69.486-138.971-149.943-21.943 109.714-106.057-25.6-153.6zM438.857 773.486l95.086 18.286 43.886 87.771 43.886-91.429 95.086-14.629-69.486-69.486 18.286-98.743-87.771 47.543-84.114-47.543 14.629 98.743-69.486 69.486zM1152 652.8l-149.943 21.943-65.829 138.971-65.829-138.971-149.943-21.943 109.714-106.057-25.6-153.6 128 73.143 135.314-73.143-25.6 153.6 109.714 106.057zM939.886 506.514l-84.114-47.543 14.629 98.743-73.143 69.486 95.086 14.629 43.886 87.771 43.886-87.771 98.743-14.629-69.486-69.486 18.286-98.743-87.771 47.543zM325.486 546.743l109.714 106.057-149.943 21.943-69.486 138.971-65.829-138.971-149.943-21.943 109.714-106.057-25.6-153.6 131.657 73.143 135.314-73.143-25.6 153.6zM215.771 506.514l-87.771-47.543 18.286 98.743-69.486 69.486 98.743 14.629 40.229 87.771 43.886-87.771 98.743-14.629-73.143-69.486 18.286-98.743-87.771 47.543z" />
<glyph unicode="&#xe92a;" glyph-name="down-icon" d="M512 960c-281.6 0-512-230.4-512-512s230.4-512 512-512c281.6 0 512 230.4 512 512s-230.4 512-512 512zM512 302.933l-230.4 230.4 59.733 59.733 170.667-170.667 170.667 170.667 59.733-59.733-230.4-230.4z" />
<glyph unicode="&#xe92b;" glyph-name="copy-link" horiz-adv-x="1446" d="M1174.588 678.677v-154.395c53.76-25.082 90.353-71.198 90.353-124.47v-144.565c0-79.727-81.047-144.565-180.706-144.565h-361.412c-99.659 0-180.706 64.837-180.706 144.565v144.565c0 79.727 81.047 144.565 180.706 144.565h90.353v144.565h-90.353c-199.319 0-361.412-129.675-361.412-289.129v-144.565c0-159.455 162.093-289.129 361.412-289.129h361.412c199.319 0 361.412 129.675 361.412 289.129v144.565c0 134.373-115.561 246.555-271.059 278.865zM722.824 960h-361.412c-199.319 0-361.412-129.675-361.412-289.129v-144.565c0-134.373 115.561-246.555 271.059-278.865v154.395c-53.76 25.082-90.353 71.198-90.353 124.47v144.565c0 79.727 81.047 144.565 180.706 144.565h361.412c99.659 0 180.706-64.837 180.706-144.565v-144.565c0-79.727-81.047-144.565-180.706-144.565h-90.353v-144.565h90.353c199.319 0 361.412 129.675 361.412 289.129v144.565c0 159.455-162.093 289.129-361.412 289.129z" />
<glyph unicode="&#xe92c;" glyph-name="list-view" d="M372.364 866.909h651.636v-93.091h-651.636v93.091zM372.364 494.545h651.636v-93.091h-651.636v93.091zM372.364 122.182h651.636v-93.091h-651.636v93.091zM279.273 680.727h-279.273v279.273h279.273v-279.273zM93.091 773.818h93.091v93.091h-93.091v-93.091zM279.273 308.364h-279.273v279.273h279.273v-279.273zM93.091 401.455h93.091v93.091h-93.091v-93.091zM279.273-64h-279.273v279.273h279.273v-279.273zM93.091 29.091h93.091v93.091h-93.091v-93.091z" />
<glyph unicode="&#xe92d;" glyph-name="language" horiz-adv-x="1170" d="M950.857-64h-877.714c-58.514 0-95.086 65.829-58.514 117.029l204.8 270.629v416.914c0 124.343 95.086 219.429 219.429 219.429h512c124.343 0 219.429-95.086 219.429-219.429v-585.143c0-124.343-95.086-219.429-219.429-219.429zM219.429 82.286h731.429c43.886 0 73.143 29.257 73.143 73.143v585.143c0 43.886-29.257 73.143-73.143 73.143h-512c-43.886 0-73.143-29.257-73.143-73.143v-438.857c0-14.629-7.314-29.257-14.629-43.886l-131.657-175.543zM512 667.429h365.714v-146.286h-365.714v146.286zM512 374.857h365.714v-146.286h-365.714v146.286z" />
<glyph unicode="&#xe92e;" glyph-name="demographic" d="M652.8 230.4l-172.8 128c57.6 44.8 96 108.8 96 185.6v51.2c0 121.6-89.6 230.4-211.2 236.8-128 6.4-236.8-96-236.8-224v-64c0-76.8 38.4-140.8 96-185.6l-172.8-134.4c-32-25.6-51.2-64-51.2-102.4v-121.6c0-38.4 25.6-64 64-64h576c38.4 0 64 25.6 64 64v128c0 38.4-19.2 76.8-51.2 102.4zM966.4 550.4l-115.2 76.8c25.6 25.6 44.8 64 44.8 108.8v57.6c0 76.8-57.6 153.6-134.4 166.4s-140.8-32-172.8-89.6c70.4-64 115.2-153.6 115.2-256v-64c0-57.6-12.8-115.2-38.4-160 0 0 76.8-57.6 76.8-64h217.6c38.4 0 64 25.6 64 64v51.2c0 44.8-19.2 83.2-57.6 108.8z" />
<glyph unicode="&#xe92f;" glyph-name="grid-view" d="M256 704h-256v256h256v-256zM85.333 789.333h85.333v85.333h-85.333v-85.333zM256 320h-256v256h256v-256zM85.333 405.333h85.333v85.333h-85.333v-85.333zM256-64h-256v256h256v-256zM85.333 21.333h85.333v85.333h-85.333v-85.333zM640 704h-256v256h256v-256zM469.333 789.333h85.333v85.333h-85.333v-85.333zM640 320h-256v256h256v-256zM469.333 405.333h85.333v85.333h-85.333v-85.333zM640-64h-256v256h256v-256zM469.333 21.333h85.333v85.333h-85.333v-85.333zM1024 704h-256v256h256v-256zM853.333 789.333h85.333v85.333h-85.333v-85.333zM1024 320h-256v256h256v-256zM853.333 405.333h85.333v85.333h-85.333v-85.333zM1024-64h-256v256h256v-256zM853.333 21.333h85.333v85.333h-85.333v-85.333z" />
<glyph unicode="&#xe930;" glyph-name="profile-1-star" horiz-adv-x="1095" d="M377.821 278.51v-28.248c0-84.745 67.090-155.366 151.834-155.366s151.834 70.621 151.834 155.366v28.248c0 84.745-67.090 155.366-151.834 155.366s-151.834-70.621-151.834-155.366zM787.421 56.055l-120.055 67.090c-31.779-38.841-81.214-63.559-137.71-63.559s-102.4 24.717-137.71 63.559l-120.055-67.090c-3.531-3.531-7.062-7.062-7.062-14.124v-84.745c0-7.062 7.062-14.124 14.124-14.124h501.407c7.062 0 14.124 7.062 14.124 14.124v84.745c0 7.062-3.531 10.593-7.062 14.124zM399.007 522.152l130.648 70.621 130.648-70.621-24.717 148.303 105.931 102.4-144.772 21.186-67.090 134.179-63.559-134.179-144.772-21.186 105.931-102.4-28.248-148.303zM395.476 748.138l91.807 14.124 42.372 88.276 42.372-84.745 91.807-17.655-67.090-67.090 14.124-95.338-81.214 45.903-84.745-45.903 14.124 95.338-63.559 67.090zM1087.559 631.614l-144.772 21.186-63.559 134.179-67.090-134.179-144.772-21.186 105.931-102.4-24.717-148.303 130.648 70.621 130.648-70.621-24.717 148.303 102.4 102.4zM879.228 490.372l-84.745-45.903 14.124 95.338-67.090 67.090 91.807 14.124 42.372 84.745 42.372-84.745 91.807-14.124-67.090-67.090 14.124-95.338-77.683 45.903zM268.359 532.745l84.745 88.276-120.055 17.655-52.966 109.462-52.966-109.462-116.524-17.655 84.745-88.276-21.186-120.055 105.931 56.497 105.931-56.497z" />
<glyph unicode="&#xe931;" glyph-name="profile-2-star" horiz-adv-x="1176" d="M405.807 303.881v-30.341c0-91.022 72.059-166.874 163.081-166.874s163.081 75.852 163.081 166.874v30.341c0 91.022-72.059 166.874-163.081 166.874s-163.081-75.852-163.081-166.874zM845.748 64.948l-128.948 72.059c-34.133-41.719-87.23-68.267-147.911-68.267s-109.985 26.548-147.911 68.267l-128.948-72.059c-3.793-3.793-7.585-7.585-7.585-15.17v-91.022c0-7.585 7.585-15.17 15.17-15.17h538.548c7.585 0 15.17 7.585 15.17 15.17v91.022c0 7.585-3.793 11.378-7.585 15.17zM455.111 599.704l113.778 60.681 113.778-60.681-22.756 132.741 94.815 91.022-128.948 18.963-56.889 117.57-56.889-117.57-128.948-18.963 94.815-91.022zM1168.119 683.141l-155.496 22.756-68.267 144.119-72.059-144.119-155.496-22.756 113.778-109.985-26.548-159.289 140.326 75.852 140.326-75.852-26.548 159.289 109.985 109.985zM944.356 531.437l-91.022-49.304 18.963 102.4-75.852 72.059 98.607 15.17 45.511 91.022 45.511-91.022 102.4-15.17-72.059-72.059 15.17-102.4-87.23 49.304zM288.237 576.948l91.022 94.815-128.948 18.963-56.889 117.57-56.889-117.57-125.156-18.963 91.022-94.815-22.756-128.948 113.778 60.681 113.778-60.681z" />
<glyph unicode="&#xe932;" glyph-name="profile-complete" horiz-adv-x="1138" d="M405.807 303.881v-30.341c0-91.022 72.059-166.874 163.081-166.874s163.081 75.852 163.081 166.874v30.341c0 91.022-72.059 166.874-163.081 166.874s-163.081-75.852-163.081-166.874zM845.748 64.948l-128.948 72.059c-34.133-41.719-87.23-68.267-147.911-68.267s-109.985 26.548-147.911 68.267l-128.948-72.059c-3.793-3.793-7.585-7.585-7.585-15.17v-91.022c0-7.585 7.585-15.17 15.17-15.17h538.548c7.585 0 15.17 7.585 15.17 15.17v91.022c0 7.585-3.793 11.378-7.585 15.17zM455.111 599.704l113.778 60.681 113.778-60.681-22.756 132.741 94.815 91.022-128.948 18.963-56.889 117.57-56.889-117.57-128.948-18.963 94.815-91.022zM1126.4 671.763l-125.156 18.963-56.889 117.57-56.889-117.57-128.948-18.963 91.022-94.815-18.963-128.948 113.778 60.681 113.778-60.681-22.756 128.948zM288.237 576.948l91.022 94.815-128.948 18.963-56.889 117.57-56.889-117.57-125.156-18.963 91.022-94.815-22.756-128.948 113.778 60.681 113.778-60.681z" />
<glyph unicode="&#xe933;" glyph-name="cash" horiz-adv-x="1071" d="M139.636 843.636h791.273v-46.545h-791.273v46.545zM325.818 960h418.909v-46.545h-418.909v46.545zM1070.545-64h-1070.545v791.273h1070.545v-791.273zM46.545-17.455h977.455v698.182h-977.455v-698.182zM535.273 215.273c-65.164 0-116.364 51.2-116.364 116.364s51.2 116.364 116.364 116.364 116.364-51.2 116.364-116.364-51.2-116.364-116.364-116.364zM535.273 401.455c-39.564 0-69.818-30.255-69.818-69.818s30.255-69.818 69.818-69.818 69.818 30.255 69.818 69.818-30.255 69.818-69.818 69.818zM791.273 75.636h-512v23.273c0 65.164-51.2 116.364-116.364 116.364h-23.273v232.727h23.273c65.164 0 116.364 51.2 116.364 116.364v23.273h512v-23.273c0-65.164 51.2-116.364 116.364-116.364h23.273v-232.727h-23.273c-65.164 0-116.364-51.2-116.364-116.364v-23.273zM323.491 122.182h421.236c9.309 72.145 67.491 128 137.309 137.309v141.964c-72.145 9.309-128 67.491-137.309 137.309h-421.236c-9.309-72.145-67.491-128-137.309-137.309v-141.964c72.145-9.309 128-65.164 137.309-137.309z" />
<glyph unicode="&#xe934;" glyph-name="check" d="M1024-64h-1024v578.783h178.087v-44.522h-133.565v-489.739h934.957v489.739h-311.652v44.522h356.174zM211.478 303.304l57.878 200.348 442.991 442.991 142.47-142.47-442.991-442.991-200.348-57.878zM309.426 481.391l-31.165-111.304 111.304 31.165 402.922 402.922-80.139 80.139-402.922-402.922zM400.696 381.217v0 0zM200.348 136.348h623.304v-44.522h-623.304v44.522zM512 314.435h311.652v-44.522h-311.652v44.522z" />
<glyph unicode="&#xe935;" glyph-name="star" horiz-adv-x="1059" d="M1059.31 578.648c-3.531 14.124-14.124 21.186-28.248 24.717l-324.855 45.903-144.772 293.076c-10.593 24.717-52.966 24.717-63.559 0l-144.772-293.076-324.855-45.903c-14.124-3.531-24.717-10.593-28.248-24.717s0-28.248 10.593-35.31l233.048-229.517-56.497-321.324c-3.531-14.124 3.531-28.248 14.124-35.31s24.717-10.593 38.841-3.531l289.545 151.834 289.545-151.834c3.531-3.531 10.593-3.531 17.655-3.531s14.124 3.531 21.186 7.062c10.593 7.062 17.655 21.186 14.124 35.31l-56.497 321.324 233.048 229.517c10.593 7.062 14.124 21.186 10.593 35.31z" />
<glyph unicode="&#xe936;" glyph-name="blog" horiz-adv-x="777" d="M730.924 960h-685.021c-24.717 0-45.903-21.186-45.903-45.903v-956.91c0-7.062 3.531-14.124 10.593-21.186 7.062 0 17.655 0 24.717 3.531l353.103 218.924 353.103-218.924c3.531-3.531 7.062-3.531 10.593-3.531s7.062 0 10.593 3.531 10.593 10.593 10.593 21.186v953.379c3.531 24.717-17.655 45.903-42.372 45.903z" />
<glyph unicode="&#xe937;" glyph-name="events" d="M0-21.333c0-25.6 17.067-42.667 42.667-42.667h938.667c25.6 0 42.667 17.067 42.667 42.667v597.333h-1024v-597.333zM1024 832c0 25.6-17.067 42.667-42.667 42.667h-128v42.667c0 25.6-17.067 42.667-42.667 42.667h-170.667c-25.6 0-42.667-17.067-42.667-42.667v-42.667h-170.667v42.667c0 25.6-17.067 42.667-42.667 42.667h-170.667c-25.6 0-42.667-17.067-42.667-42.667v-42.667h-128c-25.6 0-42.667-17.067-42.667-42.667v-170.667h1024v170.667zM341.333 746.667h-85.333v128h85.333v-128zM768 746.667h-85.333v128h85.333v-128z" />
<glyph unicode="&#xe938;" glyph-name="next-steps" horiz-adv-x="958" d="M538.426 837.781l-49.548 95.794-459.148-125.523 231.226-858.839 102.4 26.426-95.794 353.445 287.381 75.974 46.245-95.794 356.748 95.794-135.432 508.697z" />
<glyph unicode="&#xe939;" glyph-name="serve" horiz-adv-x="1100" d="M1005.037 865.185c-60.681 60.681-140.326 94.815-227.556 94.815s-166.874-34.133-227.556-94.815c0 0 0 0-3.793-3.793 0 0 0 0-3.793 3.793-56.889 60.681-136.533 94.815-219.97 94.815s-166.874-34.133-227.556-94.815-94.815-140.326-94.815-227.556 34.133-166.874 94.815-227.556l455.111-455.111 455.111 455.111c60.681 60.681 94.815 140.326 94.815 227.556s-34.133 166.874-94.815 227.556z" />
<glyph unicode="&#xe93a;" glyph-name="staff" d="M512 705.766c-70.621 0-127.117 56.497-127.117 127.117s56.497 127.117 127.117 127.117 127.117-56.497 127.117-127.117-56.497-127.117-127.117-127.117zM169.49 147.862v342.51c0 49.434 17.655 91.807 42.372 127.117h-127.117c-45.903 0-84.745-35.31-84.745-84.745v-257.766h84.745v-211.862c0-24.717 17.655-42.372 42.372-42.372h84.745c24.717 0 42.372 17.655 42.372 42.372v84.745h-84.745zM596.745-64h-169.49c-24.717 0-42.372 17.655-42.372 42.372v254.234h-130.648v254.234c0 70.621 56.497 127.117 127.117 127.117h254.234c70.621 0 127.117-56.497 127.117-127.117v-254.234h-127.117v-254.234c3.531-24.717-14.124-42.372-38.841-42.372zM169.49 659.862c-45.903 0-84.745 38.841-84.745 88.276s38.841 84.745 84.745 84.745 84.745-38.841 84.745-84.745-35.31-88.276-84.745-88.276zM854.51 147.862v342.51c0 49.434-17.655 91.807-42.372 127.117h130.648c45.903 0 84.745-38.841 84.745-84.745v-257.766h-84.745v-211.862c0-24.717-17.655-42.372-42.372-42.372h-88.276c-24.717 0-42.372 17.655-42.372 42.372v84.745h84.745zM854.51 659.862c45.903 0 84.745 38.841 84.745 84.745s-38.841 84.745-84.745 84.745c-45.903 0-84.745-38.841-84.745-84.745s35.31-84.745 84.745-84.745z" />
<glyph unicode="&#xe93b;" glyph-name="resend" d="M489.739-64c-271.583 0-489.739 218.157-489.739 489.739s218.157 489.739 489.739 489.739c129.113 0 249.322-48.974 342.817-138.017l-62.33-62.33c-75.687 71.235-173.635 111.304-280.487 111.304-222.609 0-400.696-178.087-400.696-400.696s178.087-400.696 400.696-400.696c160.278 0 302.748 93.496 369.53 240.417l80.139-35.617c-80.139-178.087-253.774-293.843-449.67-293.843zM988.383 550.4l-414.052 66.783 342.817 342.817 71.235-409.6zM761.322 679.513l120.209-22.261-22.261 120.209-97.948-97.948zM667.826 648.348l222.609 222.609 44.522-267.13z" />
<glyph unicode="&#xe93c;" glyph-name="decline" d="M512 960c-281.6 0-512-230.4-512-512s230.4-512 512-512 512 230.4 512 512-230.4 512-512 512zM768 405.333h-512v85.333h512v-85.333z" />
<glyph unicode="&#xe93d;" glyph-name="check-mark" d="M381.673 103.564l-367.709 367.709 65.164 65.164 302.545-302.545 572.509 572.509 65.164-65.164z" />
<glyph unicode="&#xe93e;" glyph-name="location-finder" d="M1024 490.667h-89.6c-21.333 200.533-179.2 362.667-379.733 379.733v89.6h-85.333v-89.6c-200.533-17.067-362.667-179.2-379.733-379.733h-89.6v-85.333h89.6c21.333-200.533 179.2-362.667 379.733-379.733v-89.6h85.333v89.6c200.533 21.333 362.667 179.2 379.733 379.733h89.6v85.333zM554.667 110.933v81.067h-85.333v-81.067c-153.6 21.333-277.333 140.8-294.4 294.4h81.067v85.333h-81.067c17.067 153.6 140.8 277.333 294.4 294.4v-81.067h85.333v81.067c153.6-21.333 277.333-140.8 294.4-294.4h-81.067v-85.333h81.067c-17.067-153.6-140.8-277.333-294.4-294.4zM597.333 448c0-47.128-38.205-85.333-85.333-85.333s-85.333 38.205-85.333 85.333c0 47.128 38.205 85.333 85.333 85.333s85.333-38.205 85.333-85.333z" />
<glyph unicode="&#xe93f;" glyph-name="email-box" d="M896 960c70.4 0 128-57.6 128-128v0-768c0-70.4-57.6-128-128-128v0h-768c-70.4 0-128 57.6-128 128v0 768c0 70.4 57.6 128 128 128v0zM757.76 502.756l-221.611-119.168-3.706-2.438c-7.643-4.389-16.603-5.925-25.563-5.925-10.453 0-20.907 2.091-29.269 8.363v0l-221.611 119.168v-252.971l0.204-3.314c1.351-10.681 9.299-17.592 20.702-17.592v0l463.261 0.204c10.681 1.351 17.592 9.299 17.592 20.702v0 252.971zM276.907 672v0l-3.314-0.204c-10.681-1.351-17.592-9.299-17.592-20.702v0-62.72l0.25-3.456c0.987-6.656 4.827-11.776 10.203-15.36v0l229.973-125.44 2.809-1.209c2.548-0.882 4.508-0.882 7.644-0.882 4.181 0 6.272 0 10.453 2.091v0l229.973 125.44 2.554 1.92c4.827 4.096 7.899 9.728 7.899 16.896v0 62.72l-0.204 3.314c-1.351 10.681-9.299 17.592-20.702 17.592v0z" />
<glyph unicode="&#xe940;" glyph-name="camera" horiz-adv-x="1158" d="M1085.217 742.957h-180.87l-122.991 188.104c-14.47 14.47-36.174 28.939-57.878 28.939h-289.391c-21.704 0-43.409-14.47-57.878-28.939l-122.991-188.104h-180.87c-43.409 0-72.348-28.939-72.348-72.348v-651.13c0-43.409 28.939-72.348 72.348-72.348h1012.87c43.409 0 72.348 28.939 72.348 72.348v651.13c0 43.409-28.939 72.348-72.348 72.348zM578.783 164.174c-122.991 0-217.043 94.052-217.043 217.043s94.052 217.043 217.043 217.043c122.991 0 217.043-94.052 217.043-217.043s-94.052-217.043-217.043-217.043z" />
<glyph unicode="&#xe941;" glyph-name="shopping-cart" horiz-adv-x="981" d="M256-64c47.128 0 85.333 38.204 85.333 85.333s-38.205 85.333-85.333 85.333c-47.128 0-85.333-38.204-85.333-85.333s38.205-85.333 85.333-85.333zM853.333-64c47.13 0 85.333 38.204 85.333 85.333s-38.204 85.333-85.333 85.333c-47.13 0-85.333-38.204-85.333-85.333s38.204-85.333 85.333-85.333zM256 277.333c-11.316 0-22.168 4.497-30.17 12.497s-12.497 18.854-12.497 30.17v42.667h597.333c9.51 0 18.752 3.179 26.249 9.033 7.501 5.85 12.826 14.042 15.138 23.266l85.333 341.333c1.574 6.291 1.698 12.859 0.354 19.204s-4.117 12.3-8.107 17.413c-3.989 5.113-9.092 9.249-14.921 12.094s-12.228 4.324-18.714 4.324h-682.667v128c0 11.316-4.495 22.168-12.497 30.17s-18.854 12.497-30.17 12.497h-170.667v-85.333h128v-554.667c0-33.946 13.486-66.505 37.49-90.509s56.562-37.491 90.51-37.491h725.333v85.333h-725.333z" />
<glyph unicode="&#xe942;" glyph-name="close" d="M592.453 448l398.222 398.222-80.453 80.453-398.222-398.222-398.222 398.222-80.453-80.453 398.222-398.222-398.222-398.222 80.453-80.453 398.222 398.222 398.222-398.222 80.453 80.453-398.222 398.222z" />
<glyph unicode="&#xe943;" glyph-name="add" d="M558.545 494.545v465.455h-93.091v-465.455h-465.455v-93.091h465.455v-465.455h93.091v465.455h465.455v93.091h-465.455z" />
<glyph unicode="&#xe944;" glyph-name="add-item" d="M512 960c-281.6 0-512-230.4-512-512s230.4-512 512-512c281.6 0 512 230.4 512 512s-230.4 512-512 512zM725.333 405.333h-170.667v-170.667c0-25.6-17.067-42.667-42.667-42.667s-42.667 17.067-42.667 42.667v170.667h-170.667c-25.6 0-42.667 17.067-42.667 42.667s17.067 42.667 42.667 42.667h170.667v170.667c0 25.6 17.067 42.667 42.667 42.667s42.667-17.067 42.667-42.667v-170.667h170.667c25.6 0 42.667-17.067 42.667-42.667s-17.067-42.667-42.667-42.667z" />
<glyph unicode="&#xe945;" glyph-name="subtract" d="M0 494.545h1024v-93.091h-1024v93.091z" />
<glyph unicode="&#xe946;" glyph-name="arrow-down" d="M512 207.059c-12.047 0-30.118 6.024-42.165 12.047l-469.835 385.506 78.306 84.329 433.694-349.365 433.694 349.365 78.306-84.329-469.835-379.482c-12.047-12.047-30.118-18.071-42.165-18.071z" />
<glyph unicode="&#xe947;" glyph-name="arrow-left" horiz-adv-x="663" d="M636.869 862.502l-82.395 87.888-528.756-495.709 528.756-495.709 82.395 87.888-435.009 407.821z" />
<glyph unicode="&#xe948;" glyph-name="arrow-right" horiz-adv-x="663" d="M25.719 46.86l82.395-87.888 528.756 495.709-528.756 495.709-82.395-87.888 435.009-407.821z" />
<glyph unicode="&#xe949;" glyph-name="arrow-up" d="M915.911 226.133l-403.911 347.022-403.911-347.022-73.956 85.333 443.733 375.467c22.756 17.067 51.2 17.067 73.956 0l443.733-375.467-79.644-85.333z" />
<glyph unicode="&#xe94a;" glyph-name="play-circle" d="M512 960c-282.325 0-512-229.675-512-512s229.675-512 512-512c282.325 0 512 229.675 512 512s-229.675 512-512 512zM384 234.667v426.667l341.333-213.333-341.333-213.333z" />
<glyph unicode="&#xe94b;" glyph-name="play-big" d="M512 960c-282.327 0-512-229.69-512-512s229.673-512 512-512c282.327 0 512 229.69 512 512s-229.673 512-512 512zM719.657 434.473l-330.323-231.226c-2.824-1.982-6.144-2.989-9.464-2.989-2.61 0-5.219 0.628-7.63 1.866-5.467 2.841-8.886 8.489-8.886 14.65v462.452c0 6.161 3.419 11.809 8.886 14.65 5.45 2.824 12.040 2.411 17.094-1.123l330.323-231.226c4.426-3.089 7.052-8.142 7.052-13.527s-2.626-10.438-7.052-13.527z" />
<glyph unicode="&#xe94c;" glyph-name="play" horiz-adv-x="791" d="M770.56 486.726l-698.182 465.455c-14.289 9.495-32.675 10.426-47.756 2.327-15.174-8.099-24.623-23.878-24.623-41.053v-930.909c0-17.175 9.449-32.954 24.576-41.053 6.889-3.677 14.429-5.492 21.969-5.492 9.030 0 18.060 2.653 25.833 7.82l698.182 465.455c12.94 8.657 20.713 23.18 20.713 38.726s-7.773 30.068-20.713 38.726z" />
<glyph unicode="&#xe94d;" glyph-name="pause" horiz-adv-x="931" d="M325.818 960h-279.273c-25.74 0-46.545-20.806-46.545-46.545v-930.909c0-25.74 20.806-46.545 46.545-46.545h279.273c25.74 0 46.545 20.806 46.545 46.545v930.909c0 25.74-20.806 46.545-46.545 46.545zM884.364 960h-279.273c-25.74 0-46.545-20.806-46.545-46.545v-930.909c0-25.74 20.806-46.545 46.545-46.545h279.273c25.74 0 46.545 20.806 46.545 46.545v930.909c0 25.74-20.806 46.545-46.545 46.545z" />
<glyph unicode="&#xe94e;" glyph-name="pause-circle" d="M512 960c-282.325 0-512-229.675-512-512s229.675-512 512-512c282.325 0 512 229.675 512 512s-229.675 512-512 512zM426.667 234.667h-85.333v426.667h85.333v-426.667zM682.667 234.667h-85.333v426.667h85.333v-426.667z" />
<glyph unicode="&#xe94f;" glyph-name="last-track" horiz-adv-x="901" d="M229.376 448l671.744-512v1024zM36.864 960h81.92v-1024h-81.92v1024z" />
<glyph unicode="&#xe950;" glyph-name="resources" d="M448 800l-358.4 153.6c-19.2 12.8-44.8 6.4-64-6.4-12.8-12.8-25.6-32-25.6-51.2v-704c0-25.6 12.8-51.2 38.4-57.6l409.6-179.2v844.8zM998.4 947.2c-19.2 12.8-38.4 12.8-57.6 6.4l-364.8-153.6v-844.8l409.6 172.8c25.6 12.8 38.4 32 38.4 57.6v710.4c0 19.2-12.8 38.4-25.6 51.2z" />
<glyph unicode="&#xe951;" glyph-name="steps" d="M0 192h256v256h256v256h256v256h256v-1024h-1024v256z" />
<glyph unicode="&#xe952;" glyph-name="next-track" horiz-adv-x="901" d="M0-64l671.744 512-671.744 512zM782.336 960h81.92v-1024h-81.92v1024z" />
<glyph unicode="&#xe953;" glyph-name="back-10" d="M512 960c-166.874 0-326.163-83.437-420.978-216.178l-15.17 128.948-75.852-11.378 37.926-288.237 288.237 37.926-11.378 75.852-182.044-22.756c75.852 132.741 223.763 219.97 379.259 219.97 238.933 0 436.148-197.215 436.148-436.148s-197.215-436.148-436.148-436.148-436.148 197.215-436.148 436.148h-75.852c0-280.652 231.348-512 512-512s512 231.348 512 512-231.348 512-512 512zM405.807 561.778l-68.267-56.889 15.17-18.963c0-3.793 3.793-3.793 3.793-3.793s0 0 3.793 0h3.793l3.793 3.793 30.341 26.548c0-3.793 0-11.378 0-15.17v-128.948h-45.511v-34.133h125.156v30.341h-41.719v197.215h-30.341zM534.756 368.356c7.585-11.378 15.17-18.963 26.548-22.756s22.756-7.585 34.133-7.585 22.756 3.793 34.133 7.585c11.378 7.585 18.963 15.17 26.548 22.756s15.17 18.963 18.963 34.133c3.793 11.378 7.585 30.341 7.585 49.304s-3.793 34.133-7.585 49.304c-7.585 11.378-11.378 26.548-18.963 34.133-7.585 11.378-15.17 18.963-26.548 22.756s-22.756 7.585-34.133 7.585c-15.17 0-22.756-3.793-34.133-7.585-11.378-7.585-18.963-15.17-26.548-22.756s-15.17-18.963-18.963-34.133c-3.793-11.378-7.585-30.341-7.585-49.304s3.793-34.133 7.585-49.304c7.585-11.378 11.378-26.548 18.963-34.133zM557.511 493.511c0 11.378 3.793 18.963 7.585 26.548 3.793 3.793 11.378 7.585 15.17 11.378s11.378 3.793 15.17 3.793c3.793 0 11.378 0 15.17-3.793 7.585 0 11.378-3.793 15.17-11.378 7.585-7.585 7.585-15.17 11.378-26.548s3.793-26.548 3.793-41.719c0-18.963 0-30.341-3.793-41.719s-7.585-18.963-11.378-26.548c-3.793-3.793-11.378-7.585-15.17-11.378s-11.378-3.793-15.17-3.793c-3.793 0-11.378 0-15.17 3.793-7.585 0-11.378 3.793-15.17 11.378s-3.793 15.17-7.585 26.548c-3.793 11.378-3.793 22.756-3.793 41.719s3.793 30.341 3.793 41.719z" />
<glyph unicode="&#xe954;" glyph-name="forward-10" d="M512 9.143c-241.371 0-438.857 197.486-438.857 438.857s197.486 438.857 438.857 438.857c149.943 0 292.571-80.457 373.029-204.8l-175.543 21.943-10.971-73.143 288.914-36.571 36.571 288.914-73.143 7.314-21.943-146.286c-91.429 131.657-248.686 215.771-416.914 215.771-281.6 0-512-230.4-512-512s230.4-512 512-512 512 230.4 512 512h-73.143c0-241.371-197.486-438.857-438.857-438.857zM394.971 367.543h-43.886v-29.257h124.343v29.257h-36.571v197.486h-32.914l-69.486-58.514 10.971-18.286c0 0 0-3.657 3.657-3.657s3.657 0 7.314 0h3.657c0 0 3.657 0 3.657 3.657l29.257 25.6c0-3.657 0-10.971 0-14.629v-131.657zM629.029 561.371c-10.971 3.657-21.943 7.314-32.914 7.314s-21.943-3.657-32.914-7.314c-10.971-7.314-18.286-10.971-25.6-21.943s-14.629-21.943-18.286-36.571c-3.657-14.629-7.314-32.914-7.314-51.2s3.657-36.571 7.314-51.2c3.657-14.629 10.971-25.6 18.286-36.571s14.629-18.286 25.6-21.943c10.971-3.657 21.943-7.314 32.914-7.314s21.943 3.657 32.914 7.314c10.971 7.314 18.286 10.971 25.6 21.943s14.629 21.943 18.286 36.571c3.657 14.629 7.314 32.914 7.314 51.2s0 36.571-7.314 51.2c-3.657 14.629-10.971 25.6-18.286 36.571s-14.629 18.286-25.6 21.943zM640 411.429c-3.657-10.971-7.314-18.286-10.971-25.6s-10.971-10.971-14.629-14.629c-3.657-3.657-7.314-3.657-14.629-3.657-3.657 0-10.971 0-14.629 3.657-7.314 3.657-10.971 7.314-14.629 14.629-7.314 7.314-7.314 14.629-10.971 25.6s-3.657 25.6-3.657 40.229c0 14.629 0 29.257 3.657 40.229s7.314 18.286 10.971 25.6c3.657 7.314 10.971 10.971 14.629 14.629s7.314 3.657 14.629 3.657c3.657 0 7.314 0 14.629-3.657s10.971-7.314 14.629-14.629c3.657-7.314 7.314-14.629 10.971-25.6s3.657-25.6 3.657-40.229c0-18.286-3.657-29.257-3.657-40.229z" />
<glyph unicode="&#xe955;" glyph-name="language-select" d="M781.964 643.491h-226.521c-21.721 0-40.339-18.618-40.339-40.339v-170.667l-68.267-93.091h335.127c21.721 0 40.339 18.618 40.339 40.339v223.418c0 21.721-18.618 40.339-40.339 40.339zM682.667 432.485h-86.885v31.030h86.885v-31.030zM738.521 531.782h-142.739v31.030h142.739v-31.030zM512 960c-282.376 0-512-229.624-512-512s229.624-512 512-512 512 229.624 512 512-229.624 512-512 512zM316.509 420.073v-52.752l-71.37-31.030c-6.206-3.103-6.206-9.309-6.206-9.309s0-9.309 6.206-12.412l71.37-37.236v-37.236c0-40.339-31.030-71.37-71.37-71.37h-43.442v31.030h43.442c21.721 0 40.339 18.618 40.339 40.339v18.618l-52.752 27.927c-15.515 9.309-24.824 21.721-21.721 40.339 0 15.515 9.309 31.030 21.721 37.236l52.752 24.824v58.958l77.576 18.618c6.206 0 9.309 3.103 9.309 9.309 0 3.103 0 9.309-3.103 15.515l-83.782 77.576v158.255h31.030v-148.945l74.473-71.37c12.412-12.412 15.515-31.030 9.309-46.545-3.103-15.515-15.515-24.824-31.030-27.927l-52.752-12.412zM853.333 376.63c0-37.236-31.030-68.267-71.37-68.267h-397.188l99.297 130.327v161.358c0 40.339 31.030 71.37 71.37 71.37h226.521c40.339 0 71.37-31.030 71.37-71.37v-223.418z" />
<glyph unicode="&#xe956;" glyph-name="add-outline" d="M576 704h-128v-192h-192v-128h192v-192h128v192h192v128h-192v192zM512 960c-281.6 0-512-230.4-512-512s230.4-512 512-512c281.6 0 512 230.4 512 512s-230.4 512-512 512zM512 64c-211.2 0-384 172.8-384 384s172.8 384 384 384c211.2 0 384-172.8 384-384s-172.8-384-384-384z" />
<glyph unicode="&#xe957;" glyph-name="remove-outline" d="M256 512h512v-128h-512v128zM512 960c-281.6 0-512-230.4-512-512s230.4-512 512-512 512 230.4 512 512-230.4 512-512 512zM512 64c-211.2 0-384 172.8-384 384s172.8 384 384 384 384-172.8 384-384-172.8-384-384-384z" />
<glyph unicode="&#xe958;" glyph-name="sb-logo" horiz-adv-x="1083" d="M677.768 779.277c38.276 0.639-5.923-96.033-27.689-99.066-30.562-4.263-106.793-53.079-129.15-107.898-14.962-36.71 8.432-84.057 17.166-104.767 118.579 66.284 270.182 117.063 374.278 127.202 0 0-2.3 3.131-4.376 5.908-113.438 142.755-213.701 229.751-399.811 359.348-242.013-168.528-338.78-264.864-508.186-505.599 23.298-33.166 45.254-63.506 66.348-91.721 380.010 150.611 429.623 413.51 611.42 416.592zM402.442 148.356c135.778 51.338 140.999 135.266 111.809 238.596-168.255-102.323-261.813-295.379-111.809-238.596zM218.309 183.595c42.315 83.21 123.018 150.372 165.62 183.954 24.369 19.226 79.571 57.964 113.278 77.653-10.203 33.725-18.922 64.128-23.936 95.202-85.669-74.604-197.366-163.706-349.574-251.323 27.88-34.141 67.849-79.84 94.612-105.486zM1083.077 555.337c-68.295 24.544-299.593 8.16-522.094-133.604 87.969-137.439 97.182-213.591 39.554-275.291-47.937-51.21-143.571-74.732-237.464-80.608-63.712-3.992-139.049 22.307-154.778 72.16 4.374-26.809 22.29-55.042 56.159-75.896 29.19-17.932 64.959-24.352 117.144-21.366 37.764-29.013 79.378-59.112 126.594-91.959 242.030 168.592 338.812 264.864 508.156 505.632-20.791 29.54-44.233 61.19-63.218 86.754 36.376 12.727 80.528 14.178 129.948 14.178z" />
<glyph unicode="&#xe959;" glyph-name="full-screen-outline" d="M46.545 960h418.909v-93.091h-306.548l292.911-292.911-65.815-65.815-292.911 292.911v-306.548h-93.091v418.909c0 25.74 20.852 46.545 46.545 46.545zM572.183 322.001l65.815 65.815 292.911-292.911v306.548h93.091v-418.909c0-25.74-20.852-46.545-46.545-46.545h-418.909v93.091h306.548l-292.911 292.911z" />
<glyph unicode="&#xe95a;" glyph-name="full-screen-glyph" d="M0 960h484.724l-209.455-209.455 209.455-209.455-65.815-65.815-209.455 209.455-209.455-209.455zM605.091 420.724l209.455-209.455 209.455 209.455v-484.724h-484.724l209.455 209.455-209.455 209.455z" />
<glyph unicode="&#xe95b;" glyph-name="volume-none" horiz-adv-x="948" d="M830.578-48.83l-409.6 280.652 41.719 64.474 292.030-201.007v413.393h75.852zM254.104 220.444h-223.763v455.111h409.6l390.637 269.274v-295.822h-75.852v151.704l-292.030-201.007h-356.504v-303.407h147.911zM24.104 138.647l850.524 616.672 44.525-61.41-850.524-616.672-44.525 61.41z" />
<glyph unicode="&#xe95c;" glyph-name="volume" horiz-adv-x="778" d="M778.24-64l-428.032 315.077h-350.208v393.846h350.208l428.032 315.077z" />
<glyph unicode="&#xe95d;" glyph-name="volume-raise" horiz-adv-x="1210" d="M0 643.491v-390.982h311.855l423.564-316.509v1024l-423.564-316.509zM926.255 638.836l-65.164-65.164c74.473-79.127 74.473-200.145 0-274.618l65.164-65.164c107.055 111.709 107.055 293.236 0 404.945zM1061.236 773.818l-65.164-60.509c148.945-148.945 148.945-395.636 0-544.582l65.164-65.164c181.527 186.182 181.527 488.727 0 670.255z" />
<glyph unicode="&#xe95e;" glyph-name="jhm" horiz-adv-x="1126" d="M201.814 246.608h-84.48v131.414l-117.333-28.16v-145.494c0-42.24 32.853-75.094 70.4-75.094h173.654c37.546 0 70.4 32.854 70.4 75.094h4.694v642.987h-117.334v-600.747zM544.43 551.68h-84.48v295.68h-117.334v-896.428h117.334v478.72h84.48v-300.372h117.334v830.72h-117.334v-408.32zM905.814 495.354l-103.254 352.001h-112.64v-718.081h112.64v347.308l46.934-183.040h112.64l46.934 183.040v-347.308h117.332v718.081h-117.332l-103.254-352.001z" />
<glyph unicode="&#xe95f;" glyph-name="cm" horiz-adv-x="1896" d="M0 462.629v1.5c0 132.782 102.025 236.308 240.059 236.308 93.023 0 153.037-39.010 192.797-95.273l-94.523-72.768c-26.256 32.258-56.264 53.263-99.774 53.263-63.766 0-108.777-54.013-108.777-120.029v-1.5c0-68.267 45.011-121.53 108.777-121.53 47.262 0 75.768 21.755 102.775 55.514l95.273-67.516c-42.76-59.264-100.525-102.775-201.799-102.775-130.532-0.75-234.807 99.024-234.807 234.807zM1412.595 691.434h132.782l108.777-176.293 108.777 176.293h133.533v-455.361h-126.031v261.814l-116.278-177.793h-2.251l-115.528 177.043v-260.314h-123.78v454.611zM493.621 960h-70.517l448.61-511.625 35.259 40.51zM1321.823-64h70.517l-449.36 512.375-35.259-40.51zM907.722 407.865l35.259 40.51 448.61 511.625h-72.018l-896.469-1024h69.767z" />
<glyph unicode="&#xe960;" glyph-name="facebook" d="M981.333 960h-938.667c-23.564 0-42.667-19.102-42.667-42.667v-938.667c0-23.564 19.103-42.667 42.667-42.667h512v384h-128v170.667h128v110.392c0 132.262 80.781 204.281 198.767 204.281 56.517 0 105.090-4.208 119.246-6.089v-138.221l-81.83-0.037c-64.168 0-76.592-30.492-76.592-75.236v-95.090h189.459l-42.667-170.667h-146.792v-384h267.076c23.564 0 42.667 19.103 42.667 42.667v938.667c0 23.564-19.103 42.667-42.667 42.667z" />
<glyph unicode="&#xe961;" glyph-name="facebook-box" d="M896 960h-768c-70.4 0-128-57.6-128-128v-768c0-70.4 57.6-128 128-128h768c70.4 0 128 57.6 128 128v768c0 70.4-57.6 128-128 128zM646.4 617.6h-48c-38.4 0-44.8-19.2-44.8-44.8v-57.6h89.6l-12.8-89.6h-76.8v-233.6h-92.8v233.6h-80v89.6h80v67.2c-3.2 80 44.8 121.6 115.2 121.6 32 0 60.8-3.2 70.4-3.2v-83.2z" />
<glyph unicode="&#xe962;" glyph-name="googleplus" d="M1024 490.667h-85.333v85.333h-85.333v-85.333h-85.333v-85.333h85.333v-85.333h85.333v85.333h85.333zM705.128 490.476l-321.128 0.19v-128h183.513c-9.904-54.174-64.154-152.998-204.847-152.998-123.825 0-224.854 102.583-224.854 228.998s101.029 228.998 224.854 228.998c70.461 0 117.607-30.049 144.55-55.953l98.438 94.81c-63.209 59.065-145.068 94.812-242.987 94.812-200.503 0-362.667-162.164-362.667-362.667s162.164-362.667 362.667-362.667c249.505 0 378.023 207.093 342.461 414.476z" />
<glyph unicode="&#xe963;" glyph-name="googleplus-box" d="M896 960h-768c-70.4 0-128-57.6-128-128v-768c0-70.4 57.6-128 128-128h768c70.4 0 128 57.6 128 128v768c0 70.4-57.6 128-128 128zM387.2 224c-124.8 0-224 99.2-224 224s99.2 224 224 224c60.8 0 112-22.4 150.4-57.6l-60.8-57.6c-16 16-44.8 35.2-89.6 35.2-76.8 0-137.6-64-137.6-140.8s64-140.8 137.6-140.8c89.6 0 121.6 64 128 96h-131.2v73.6h217.6c3.2-9.6 3.2-22.4 3.2-38.4 0-128-86.4-217.6-217.6-217.6zM864 416h-64v-64h-64v64h-64v64h64v64h64v-64h64v-64z" />
<glyph unicode="&#xe964;" glyph-name="instagram" d="M512 867.755c136.704 0 152.917-0.512 206.891-2.987 58.283-2.645 112.341-14.336 153.941-55.936s53.291-95.659 55.936-153.941c2.475-53.973 2.987-70.187 2.987-206.891s-0.512-152.917-2.987-206.891c-2.645-58.283-14.336-112.341-55.936-153.941s-95.659-53.291-153.941-55.936c-53.973-2.475-70.187-2.987-206.891-2.987s-152.917 0.512-206.891 2.987c-58.283 2.645-112.341 14.336-153.941 55.936s-53.291 95.659-55.936 153.941c-2.475 53.973-2.987 70.187-2.987 206.891s0.512 152.917 2.987 206.891c2.645 58.283 14.336 112.341 55.936 153.941s95.659 53.291 153.941 55.936c53.973 2.475 70.187 2.987 206.891 2.987v0zM512 960c-139.051 0-156.501-0.597-211.115-3.072-83.2-3.797-156.288-24.192-214.955-82.859s-79.061-131.755-82.859-214.955c-2.475-54.613-3.072-72.064-3.072-211.115s0.597-156.501 3.072-211.115c3.797-83.2 24.192-156.288 82.859-214.955s131.755-79.061 214.955-82.859c54.613-2.475 72.064-3.072 211.115-3.072s156.501 0.597 211.115 3.072c83.2 3.797 156.288 24.192 214.955 82.859s79.061 131.755 82.859 214.955c2.475 54.613 3.072 72.064 3.072 211.115s-0.597 156.501-3.072 211.115c-3.797 83.2-24.192 156.288-82.859 214.955s-131.755 79.061-214.955 82.859c-54.613 2.475-72.064 3.072-211.115 3.072v0zM512 710.912c-145.195 0-262.912-117.717-262.912-262.912s117.717-262.912 262.912-262.912c145.195 0 262.912 117.717 262.912 262.912s-117.717 262.912-262.912 262.912zM512 277.333c-94.251 0-170.667 76.416-170.667 170.667s76.416 170.667 170.667 170.667c94.251 0 170.667-76.416 170.667-170.667s-76.416-170.667-170.667-170.667zM846.763 721.323c0-33.932-27.508-61.44-61.44-61.44s-61.44 27.508-61.44 61.44c0 33.932 27.508 61.44 61.44 61.44s61.44-27.508 61.44-61.44z" />
<glyph unicode="&#xe965;" glyph-name="instagram-box" d="M640 640h-256c-29.92 0-64-34.080-64-64v-256c0-30.496 33.504-64 64-64h256c29.92 0 64 34.080 64 64v256c0 29.92-34.080 64-64 64zM512 320c-70.592 0-128 57.408-128 128s57.408 128 128 128c70.592 0 128-57.408 128-128s-57.408-128-128-128zM644.64 548.736c-16.96 0-30.72 13.76-30.72 30.72s13.76 30.72 30.72 30.72c16.96 0 30.72-13.76 30.72-30.72s-13.76-30.72-30.72-30.72zM576 448c0-35.346-28.654-64-64-64s-64 28.654-64 64c0 35.346 28.654 64 64 64s64-28.654 64-64zM896 960h-768c-70.688 0-128-57.312-128-128v-768c0-70.688 57.312-128 128-128h768c70.688 0 128 57.312 128 128v768c0 70.688-57.312 128-128 128zM768 320c0-65.792-62.208-128-128-128h-256c-65.792 0-128 62.208-128 128v256c0 65.792 62.208 128 128 128h256c65.792 0 128-62.208 128-128v-256z" />
<glyph unicode="&#xe966;" glyph-name="linkedin" d="M981.333 960h-938.667c-25.6 0-42.667-17.067-42.667-42.667v-938.667c0-25.6 17.067-42.667 42.667-42.667h938.667c25.6 0 42.667 17.067 42.667 42.667v938.667c0 25.6-17.067 42.667-42.667 42.667zM302.933 85.333h-149.333v490.667h153.6v-490.667h-4.267zM226.133 644.267c-46.933 0-89.6 38.4-89.6 89.6 0 46.933 38.4 89.6 89.6 89.6 46.933 0 89.6-38.4 89.6-89.6s-38.4-89.6-89.6-89.6zM874.667 85.333h-153.6v238.933c0 55.467 0 128-76.8 128-81.067 0-89.6-59.733-89.6-123.733v-243.2h-153.6v490.667h145.067v-68.267c21.333 38.4 68.267 76.8 145.067 76.8 153.6 0 183.467-102.4 183.467-234.667v-264.533z" />
<glyph unicode="&#xe967;" glyph-name="linkedin-box" d="M896 960h-768c-70.4 0-128-57.6-128-128v-768c0-70.4 57.6-128 128-128h768c70.4 0 128 57.6 128 128v768c0 70.4-57.6 128-128 128zM371.2 192h-105.6v342.4h105.6v-342.4zM316.8 579.2c-32 0-60.8 28.8-60.8 64 0 32 28.8 60.8 60.8 60.8 35.2 0 60.8-28.8 60.8-60.8 0-35.2-25.6-64-60.8-64zM768 192h-105.6v166.4c0 38.4 0 89.6-54.4 89.6s-64-41.6-64-86.4v-169.6h-105.6v342.4h102.4v-48c12.8 25.6 48 54.4 99.2 54.4 108.8 0 128-70.4 128-163.2v-185.6z" />
<glyph unicode="&#xe968;" glyph-name="pinterest" d="M512 960c-281.6 0-512-230.4-512-512 0-217.6 136.533-401.067 324.267-477.867-4.267 38.4-8.533 102.4 0 145.067 8.533 38.4 59.733 256 59.733 256s-12.8 34.133-12.8 76.8c0 72.533 42.667 123.733 93.867 123.733 42.667 0 64-34.133 64-72.533 0-42.667-29.867-110.933-42.667-170.667-12.8-51.2 25.6-93.867 76.8-93.867 89.6 0 162.133 93.867 162.133 234.667 0 123.733-89.6 209.067-213.333 209.067-145.067 0-230.4-110.933-230.4-221.867 0-42.667 17.067-89.6 38.4-115.2 4.267-4.267 4.267-8.533 4.267-12.8-4.267-17.067-12.8-51.2-12.8-59.733-4.267-8.533-8.533-12.8-17.067-8.533-64 29.867-102.4 123.733-102.4 196.267 0 162.133 119.467 311.467 337.067 311.467 179.2 0 315.733-128 315.733-294.4 0-174.933-110.933-320-264.533-320-51.2 0-102.4 25.6-119.467 59.733 0 0-25.6-98.133-29.867-123.733-12.8-42.667-42.667-98.133-64-132.267 42.667-12.8 93.867-21.333 145.067-21.333 281.6 0 512 230.4 512 512s-230.4 512-512 512z" />
<glyph unicode="&#xe969;" glyph-name="pinterest-box" d="M896 960h-768c-70.4 0-128-57.6-128-128v-768c0-70.4 57.6-128 128-128h768c70.4 0 128 57.6 128 128v768c0 70.4-57.6 128-128 128zM550.4 332.8c-32 0-60.8 16-70.4 35.2 0 0-16-67.2-19.2-80-12.8-44.8-51.2-92.8-54.4-96s-6.4-3.2-6.4 3.2c0 6.4-9.6 64 0 112 6.4 22.4 38.4 160 38.4 160s-9.6 19.2-9.6 48c0 44.8 25.6 76.8 57.6 76.8 25.6 0 38.4-19.2 38.4-44.8s-16-67.2-25.6-105.6c-6.4-32 16-57.6 48-57.6 54.4 0 92.8 70.4 92.8 156.8 0 64-44.8 112-121.6 112-89.6 0-144-67.2-144-140.8 0-25.6 6.4-44.8 19.2-57.6 6.4-6.4 6.4-9.6 3.2-16 0-6.4-3.2-19.2-6.4-22.4-3.2-6.4-6.4-9.6-16-6.4-41.6 16-60.8 60.8-60.8 112 0 83.2 70.4 182.4 211.2 182.4 112 0 185.6-80 185.6-169.6 0-115.2-64-201.6-160-201.6z" />
<glyph unicode="&#xe96a;" glyph-name="podcast" d="M815.15 200.36l-36.13 36.224c-2.458 2.464-2.442 6.416-0.016 8.912 141.248 146.384 139.78 380.688-4.405 525.248-145.669 146.032-382.667 146.032-528.336 0-144.185-144.56-145.653-378.864-4.405-525.248 2.41-2.496 2.442-6.448-0.032-8.912l-36.114-36.224c-2.537-2.544-6.734-2.544-9.24 0.048-173.133 178.8-163.973 470.128 27.48 637.008 163.031 142.112 409.924 142.112 572.956 0 191.453-166.88 200.614-458.208 27.48-637.008-2.505-2.592-6.703-2.592-9.24-0.048zM711.026 304.757l-36.13 36.224c-2.442 2.464-2.426 6.384-0.048 8.912 50.014 52.912 71.797 125.904 57.738 200.48-5.314 28.208-16.341 55.248-32.172 79.184-90.851 137.488-288.784 137.52-379.795 0.304-15.863-23.936-26.938-50.992-32.3-79.216-14.155-74.672 7.612-147.776 57.69-200.752 2.394-2.528 2.41-6.448-0.048-8.912l-36.13-36.224c-2.537-2.56-6.75-2.544-9.24 0.064-63.531 66.576-92 158.224-76.074 252.32 6.83 40.336 22.613 78.928 45.833 112.576 116.88 169.376 363.278 169.376 480.158 0 23.22-33.648 39.002-72.24 45.833-112.576 15.942-94.096-12.527-185.744-76.058-252.32-2.505-2.608-6.703-2.624-9.256-0.064zM510.431 399.634c27.417 0 54.833 10.464 75.723 31.392 41.747 41.872 41.747 109.968 0 151.824-20.203 20.256-47.093 31.408-75.723 31.408h-0.016c-28.629 0-55.503-11.152-75.707-31.392-41.747-41.856-41.731-109.968 0.016-151.84 20.874-20.928 48.306-31.392 75.707-31.392zM510.431 365.368c-81.404 0-98.097-18.56-98.017-47.424l51.849-330.448c5.314-25.744 21.719-39.92 46.168-39.92 25.135 0 41.54 14.24 46.248 40.24l51.865 331.12c0 46.432-73.856 46.432-98.112 46.432z" />
<glyph unicode="&#xe96b;" glyph-name="podcast-box" d="M884.053 960h-740.693c-75.093 0-136.533-61.44-136.533-136.533v-740.693c0-75.093 61.44-136.533 136.533-136.533h740.693c75.093 0 136.533 61.44 136.533 136.533v740.693c0 75.093-61.44 136.533-136.533 136.533zM546.133 116.907c-3.413-20.48-17.067-30.72-34.133-30.72s-30.72 10.24-34.133 30.72l-37.547 242.347c0 20.48 13.653 34.133 71.68 34.133 17.067 0 71.68 0 71.68-34.133l-37.547-242.347zM563.2 437.76c-17.067-17.067-34.133-23.893-54.613-23.893s-40.96 6.827-54.613 23.893c-30.72 30.72-30.72 81.92 0 112.64 13.653 13.653 34.133 23.893 54.613 23.893v0c20.48 0 40.96-6.827 54.613-23.893 30.72-34.133 30.72-81.92 0-112.64zM662.187 352.427l-27.307 27.307c-3.413 3.413-3.413 3.413 0 6.827 37.547 37.547 54.613 92.16 40.96 146.773-3.413 20.48-13.653 40.96-23.893 58.027-68.267 102.4-211.627 102.4-279.893 0-10.24-17.067-20.48-37.547-23.893-58.027-10.24-54.613 6.827-109.227 40.96-146.773 3.413-3.413 3.413-3.413 0-6.827l-27.307-27.307c-3.413-3.413-3.413-3.413-6.827 0-47.787 47.787-68.267 116.053-54.613 184.32 3.413 30.72 17.067 58.027 34.133 81.92 85.333 126.293 266.24 126.293 354.987 0 17.067-23.893 27.307-54.613 34.133-81.92 10.24-68.267-10.24-136.533-54.613-184.32-3.413-3.413-3.413-3.413-6.827 0zM747.52 270.507c-3.413-3.413-3.413-3.413-6.827 0l-27.307 27.307c-3.413 3.413-3.413 3.413 0 6.827 105.813 109.227 105.813 279.893-3.413 385.707-105.813 105.813-283.307 105.813-389.12 0s-105.813-276.48-3.413-385.707c3.413-3.413 3.413-3.413 0-6.827l-27.307-27.307c-3.413-3.413-3.413-3.413-6.827 0-126.293 133.12-119.467 348.16 20.48 471.040 119.467 105.813 303.787 105.813 423.253 0 143.36-122.88 150.187-337.92 20.48-471.040z" />
<glyph unicode="&#xe96c;" glyph-name="sk" horiz-adv-x="1046" d="M1043.138 703.407c1.778 2.669 2.684 5.808 2.597 8.998s-1.166 6.277-3.087 8.848c-1.922 2.571-4.599 4.503-7.669 5.538-3.072 1.035-6.39 1.124-9.514 0.253l-306.172-85.643c-0.556-0.148-1.139-0.148-1.693 0.002s-1.057 0.444-1.455 0.85c-0.399 0.405-0.68 0.911-0.813 1.46s-0.113 1.122 0.057 1.662l95.968 293.966c0.885 2.695 1.007 5.576 0.357 8.334s-2.050 5.292-4.050 7.331-4.525 3.507-7.305 4.247c-2.782 0.74-5.715 0.725-8.488-0.043l-510.030-142.136c-30.31-8.447-58.026-24.127-80.681-45.643s-39.546-48.204-49.171-77.685l-151.186-462.035c-0.882-2.699-1.001-5.586-0.345-8.347 0.656-2.763 2.064-5.296 4.072-7.334 2.008-2.035 4.541-3.499 7.329-4.231s5.726-0.706 8.5 0.076l204.696 57.723c0.556 0.157 1.146 0.161 1.704 0.015 0.56-0.146 1.068-0.438 1.473-0.845 0.403-0.407 0.686-0.915 0.821-1.468s0.113-1.131-0.059-1.675l-95.481-291.772c-0.882-2.702-1.001-5.586-0.345-8.347 0.656-2.763 2.064-5.296 4.072-7.334 2.008-2.035 4.541-3.499 7.329-4.231s5.726-0.706 8.5 0.076l763.948 215.413c2.445 0.671 4.691 1.906 6.551 3.604s3.281 3.806 4.146 6.153c0.863 2.346 1.142 4.863 0.815 7.336-0.327 2.475-1.251 4.837-2.693 6.889l-110.226 160.6c-0.828 1.209-1.272 2.634-1.272 4.094 0 1.458 0.444 2.882 1.272 4.094l227.528 341.208zM713.506 346.818l87.149-127.096c0.285-0.407 0.466-0.876 0.532-1.366 0.063-0.49 0.009-0.989-0.161-1.455-0.17-0.464-0.451-0.882-0.819-1.22-0.366-0.338-0.81-0.586-1.294-0.721l-229.725-64.782c-0.665-0.157-1.364-0.098-1.991 0.168-0.63 0.266-1.153 0.723-1.495 1.305l-59.261 101.919c-0.303 0.527-0.756 0.959-1.305 1.238s-1.168 0.397-1.782 0.333c-0.614-0.061-1.198-0.298-1.678-0.682-0.479-0.381-0.834-0.893-1.022-1.473l-43.923-133.124c-0.153-0.486-0.427-0.926-0.8-1.279-0.37-0.355-0.828-0.61-1.327-0.743l-200.721-56.595c-0.558-0.155-1.146-0.161-1.706-0.013-0.558 0.146-1.068 0.438-1.471 0.845s-0.688 0.915-0.821 1.468c-0.135 0.553-0.115 1.131 0.059 1.673l103.951 314.418c0.172 0.543 0.194 1.122 0.059 1.675s-0.418 1.059-0.821 1.466c-0.405 0.407-0.913 0.702-1.473 0.848-0.558 0.146-1.148 0.142-1.704-0.015l-228.261-64.54c-0.554-0.148-1.139-0.148-1.692 0.002s-1.056 0.442-1.455 0.85c-0.399 0.405-0.68 0.909-0.813 1.458-0.133 0.551-0.114 1.124 0.056 1.665l54.067 163.581c0.164 0.488 0.447 0.93 0.824 1.288 0.376 0.359 0.835 0.621 1.338 0.767l120.719 34.053c0.678 0.174 1.277 0.564 1.704 1.111 0.429 0.545 0.66 1.214 0.66 1.902s-0.231 1.357-0.66 1.904c-0.427 0.545-1.026 0.935-1.704 1.111l-96.736 26.31c-0.416 0.109-0.805 0.301-1.143 0.562s-0.618 0.588-0.824 0.961c-0.205 0.373-0.332 0.78-0.371 1.203-0.039 0.42 0.009 0.845 0.142 1.248l27.191 82.218c8.061 24.378 22.090 46.437 40.853 64.244 18.763 17.805 41.686 30.812 66.758 37.878l360.762 101.746c0.556 0.16 1.146 0.168 1.706 0.023s1.068-0.439 1.471-0.848c0.401-0.41 0.682-0.919 0.81-1.474s0.1-1.134-0.083-1.674l-47.653-144.26c-0.172-0.479-0.458-0.915-0.832-1.266-0.377-0.351-0.832-0.61-1.329-0.754l-125.285-35.321c-0.658-0.196-1.233-0.595-1.643-1.137-0.407-0.543-0.63-1.2-0.63-1.876s0.222-1.333 0.63-1.876c0.41-0.543 0.985-0.943 1.643-1.139l100.326-28.195c0.412-0.12 0.793-0.32 1.124-0.588 0.329-0.268 0.601-0.599 0.8-0.974 0.198-0.373 0.318-0.782 0.353-1.203s-0.015-0.843-0.15-1.242l-66.233-200.854c-0.22-0.715-0.174-1.484 0.129-2.17 0.303-0.684 0.845-1.242 1.527-1.571 0.684-0.329 1.464-0.41 2.201-0.227s1.383 0.619 1.826 1.227l89.519 130.453c0.42 0.619 1.050 1.068 1.778 1.268l236.243 66.632c0.627 0.176 1.296 0.157 1.913-0.052 0.617-0.211 1.15-0.604 1.532-1.124s0.59-1.146 0.597-1.787c0.009-0.643-0.187-1.27-0.556-1.8l-179.283-261.216c-0.364-0.462-0.588-1.017-0.643-1.599-0.057-0.582 0.059-1.168 0.329-1.689z" />
<glyph unicode="&#xe96d;" glyph-name="hsm" horiz-adv-x="2159" d="M95.573-61.269v64.171h-89.429v-64.171h-6.144v131.072h6.144v-60.757h89.429v60.757h6.144v-131.072h-6.144zM137.899-61.269v131.072h6.144v-131.072h-6.144zM175.445 4.267c0 40.277 29.355 67.584 65.536 67.584 19.797 0 35.499-6.827 47.787-20.48l-4.096-4.096c-10.24 11.605-26.624 18.432-43.691 18.432-32.768 0-58.709-25.259-58.709-62.123s25.941-62.123 58.709-62.123c19.115 0 34.133 9.557 41.643 17.749v36.181h-53.931v6.144h60.075v-44.373c-10.923-12.288-27.989-21.163-47.787-21.163-36.864 0-65.536 27.989-65.536 68.267zM415.744-61.269v64.171h-89.429v-64.171h-6.144v131.072h6.144v-60.757h89.429v60.757h6.144v-131.072h-6.144zM503.125-42.837l4.779 4.779c8.192-9.557 21.845-19.115 40.96-19.115 30.037 0 38.229 17.067 38.229 29.355 0 43.008-79.872 21.845-79.872 66.901 0 21.163 19.115 33.451 40.96 33.451 19.115 0 33.451-6.827 42.325-18.432l-4.779-4.779c-9.557 12.288-22.528 17.067-37.547 17.067-19.115 0-34.133-11.605-34.133-27.307 0-37.547 79.872-17.749 79.872-66.901 0-15.019-9.557-35.499-45.056-35.499-20.48 0-36.181 8.875-45.739 20.48zM619.861 4.267c0 40.277 29.355 67.584 65.536 67.584 18.432 0 34.133-7.509 45.739-20.48l-4.779-4.096c-9.557 11.605-24.576 19.115-40.96 19.115-32.768 0-58.709-25.259-58.709-62.123s25.941-62.123 58.709-62.123c16.384 0 31.403 7.509 40.96 19.115l4.779-4.096c-12.288-13.653-27.307-21.163-45.739-21.163-36.864 0.683-65.536 27.989-65.536 68.267zM851.968-61.269v64.171h-89.429v-64.171h-6.144v131.072h6.144v-60.757h89.429v60.757h6.144v-131.072h-6.144zM889.515 4.267c0 38.229 23.893 67.584 62.123 67.584s62.123-30.037 62.123-67.584-24.576-67.584-62.123-67.584c-38.229 0-62.123 29.355-62.123 67.584zM1006.933 4.267c0 36.181-21.845 62.123-55.296 62.123-34.133 0-55.296-25.941-55.296-62.123 0-35.499 21.163-62.123 55.296-62.123 33.451 0 55.296 26.624 55.296 62.123zM1040.384 4.267c0 38.229 23.893 67.584 62.123 67.584s62.123-30.037 62.123-67.584-24.576-67.584-62.123-67.584c-37.547 0-62.123 29.355-62.123 67.584zM1158.485 4.267c0 36.181-21.845 62.123-55.296 62.123-34.133 0-55.296-25.941-55.296-62.123 0-35.499 21.163-62.123 55.296-62.123 33.451 0 55.296 26.624 55.296 62.123zM1196.715-61.269v131.072h6.144v-124.928h65.536v-6.144h-71.68zM1458.176-61.269v123.563l-51.2-123.563h-2.048l-51.2 123.563v-123.563h-6.144v131.072h10.24l48.469-117.419 48.469 117.419h10.24v-131.072h-6.827zM1500.501-61.269v131.072h6.144v-131.072h-6.144zM1637.035-61.269l-88.064 120.832v-120.832h-6.144v131.072h6.144l88.064-119.467v119.467h6.144v-131.072h-6.144zM1679.36-61.269v131.072h6.144v-131.072h-6.144zM1714.176-42.837l4.779 4.779c8.192-9.557 21.845-19.115 40.96-19.115 30.037 0 38.229 17.067 38.229 29.355 0 43.008-79.872 21.845-79.872 66.901 0 21.163 19.115 33.451 40.96 33.451 19.115 0 33.451-6.827 42.325-18.432l-4.779-4.779c-9.557 12.288-22.528 17.067-37.547 17.067-19.115 0-34.133-11.605-34.133-27.307 0-37.547 79.872-17.749 79.872-66.901 0-15.019-9.557-35.499-45.056-35.499-20.48 0-36.181 8.875-45.739 20.48zM1869.824-61.269v124.928h-44.373v6.144h94.891v-6.144h-44.373v-124.928h-6.144zM2024.107-61.269l-39.595 56.661h-32.085v-56.661h-6.144v131.072h45.056c21.163 0 38.912-12.971 38.912-36.864s-17.749-37.547-38.912-37.547l40.277-56.661h-7.509zM2023.424 32.939c0 17.749-12.288 31.403-32.085 31.403h-38.912v-62.805h38.912c19.115 0 32.085 12.971 32.085 31.403zM2097.835-61.269v56.661l-52.565 74.411h8.192l47.787-68.267 47.787 68.267h8.192l-52.565-74.411v-56.661h-6.827zM1865.045 960l-169.984-449.877-171.349 449.877h-293.547v-40.96c32.768-16.384 62.805-36.181 90.112-60.075l-114.688-157.696c-68.267 57.344-157.696 85.333-238.251 85.333-61.44 0-88.064-20.48-88.064-55.979 0-100.352 460.8-24.576 460.8-327.68 0-91.477-38.229-165.888-109.909-213.675v-46.421h211.627v541.355l206.848-541.355h92.843l205.483 541.355v-541.355h211.627v817.152h-293.547zM638.293 259.584l111.275 163.84c58.709-58.709 148.821-107.861 261.461-107.861 70.997 0 114.688 24.576 114.688 64.853 0 107.861-460.8 18.432-460.8 332.459 0 73.045 32.768 141.995 94.891 190.464v56.661h-211.627v-305.835h-340.651v305.835h-205.483v-811.008h205.483v322.901h340.651v-323.584h211.627v29.355c-47.104 21.845-87.381 49.835-121.515 81.92z" />
<glyph unicode="&#xe970;" glyph-name="rss" d="M292.571 82.286c0-80.791-65.494-146.286-146.286-146.286s-146.286 65.494-146.286 146.286c0 80.791 65.494 146.286 146.286 146.286s146.286-65.494 146.286-146.286zM1024-64h-195.048c0 457.095-371.857 828.952-828.952 828.952v195.048c564.619 0 1024-459.357 1024-1024zM682.667-64h-195.048c0 268.881-218.762 487.619-487.619 487.619v195.048c376.429 0 682.667-306.238 682.667-682.667z" />
<glyph unicode="&#xe971;" glyph-name="rss-box" d="M896 960h-768c-70.4 0-128-57.6-128-128v-768c0-70.4 57.6-128 128-128h768c70.4 0 128 57.6 128 128v768c0 70.4-57.6 128-128 128zM329.6 192c-41.6 0-73.6 32-73.6 73.6s32 73.6 73.6 73.6c41.6 0 73.6-32 73.6-73.6s-32-73.6-73.6-73.6zM515.2 192c0 144-115.2 259.2-259.2 259.2v80c185.6 0 339.2-150.4 339.2-339.2h-80zM688 192c0 240-195.2 432-432 432v80c281.6 0 512-230.4 512-512h-80z" />
<glyph unicode="&#xe972;" glyph-name="skype" d="M987.2 363.2c0-1.6 0-3.2-1.6-4.8v9.6c0-1.6 1.6-3.2 1.6-4.8 4.8 28.8 8 57.6 8 88 0 65.6-12.8 128-38.4 188.8-24 57.6-59.2 108.8-104 153.6s-96 80-153.6 104c-57.6 24-121.6 36.8-187.2 36.8-30.4 0-60.8-3.2-91.2-8v0c1.6-1.6 3.2-1.6 4.8-3.2l-9.6 1.6c1.6 0 3.2 0 4.8 1.6-41.6 22.4-88 33.6-134.4 33.6-76.8 0-148.8-30.4-203.2-83.2-52.8-56-83.2-128-83.2-204.8 0-48 12.8-96 36.8-139.2 0 1.6 0 3.2 1.6 4.8l1.6-9.6c-1.6 1.6-1.6 3.2-3.2 4.8-4.8-27.2-8-56-8-83.2 0-65.6 12.8-128 38.4-188.8 24-57.6 59.2-108.8 104-153.6s96-80 153.6-104c59.2-25.6 123.2-38.4 188.8-38.4 28.8 0 57.6 3.2 84.8 8-1.6 1.6-3.2 1.6-4.8 3.2l9.6-1.6c-1.6 0-3.2 0-4.8-1.6 43.2-24 91.2-36.8 140.8-36.8 76.8 0 148.8 30.4 201.6 83.2 52.8 56 83.2 128 83.2 204.8 0 48-12.8 96-36.8 139.2v0zM513.6 153.6c-171.2 0-248 84.8-248 147.2 0 32 24 56 57.6 56 73.6 0 54.4-105.6 192-105.6 70.4 0 108.8 38.4 108.8 76.8 0 24-11.2 49.6-57.6 60.8l-152 38.4c-123.2 30.4-145.6 97.6-145.6 160 0 129.6 121.6 179.2 236.8 179.2 105.6 0 230.4-59.2 230.4-136 0-33.6-28.8-52.8-62.4-52.8-62.4 0-51.2 86.4-177.6 86.4-62.4 0-97.6-28.8-97.6-68.8s49.6-52.8 92.8-64l113.6-25.6c123.2-27.2 155.2-99.2 155.2-168-1.6-104-81.6-184-246.4-184v0z" />
<glyph unicode="&#xe973;" glyph-name="skype-box" d="M556.8 476.8l-57.6 12.8c-22.4 6.4-44.8 12.8-44.8 32s16 35.2 48 35.2c64 0 57.6-44.8 89.6-44.8 16 0 32 9.6 32 25.6 0 38.4-60.8 67.2-115.2 67.2-57.6 0-118.4-25.6-118.4-89.6 0-32 9.6-64 73.6-80l76.8-19.2c22.4-6.4 28.8-19.2 28.8-32 0-19.2-19.2-38.4-54.4-38.4-67.2 0-57.6 51.2-96 51.2-16 0-28.8-12.8-28.8-28.8 0-32 38.4-73.6 124.8-73.6 83.2 0 121.6 38.4 121.6 92.8 0 41.6-16 76.8-80 89.6zM896 960h-768c-70.4 0-128-57.6-128-128v-768c0-70.4 57.6-128 128-128h768c70.4 0 128 57.6 128 128v768c0 70.4-57.6 128-128 128zM726.4 233.6c-25.6-25.6-64-41.6-102.4-41.6-25.6 0-48 6.4-70.4 19.2-12.8-3.2-28.8-3.2-41.6-3.2-32 0-64 6.4-92.8 19.2s-54.4 28.8-76.8 51.2c-22.4 22.4-41.6 48-54.4 76.8s-19.2 60.8-19.2 92.8c0 12.8 0 28.8 3.2 41.6-9.6 22.4-16 44.8-16 70.4 0 38.4 16 73.6 41.6 102.4 25.6 25.6 64 41.6 102.4 41.6 22.4 0 48-6.4 67.2-16 0 0 0 0 0 0 12.8 0 28.8 3.2 44.8 3.2 32 0 64-6.4 92.8-19.2s54.4-28.8 76.8-51.2c22.4-22.4 38.4-48 51.2-76.8s19.2-60.8 19.2-92.8c0-16 0-28.8-3.2-44.8 12.8-22.4 19.2-44.8 19.2-70.4 0-38.4-16-73.6-41.6-102.4z" />
<glyph unicode="&#xe974;" glyph-name="twitter" d="M1024 763.733c-38.4-17.067-76.8-29.867-119.467-34.133 42.667 25.6 76.8 68.267 93.867 115.2-42.667-25.6-85.333-42.667-132.267-51.2-38.4 42.667-93.867 68.267-153.6 68.267-115.2 0-209.067-93.867-209.067-209.067 0-17.067 0-34.133 4.267-46.933-179.2 8.533-332.8 93.867-435.2 221.867-21.333-34.133-29.867-68.267-29.867-106.667 0-72.533 38.4-136.533 93.867-174.933-34.133 0-68.267 8.533-93.867 25.6 0 0 0 0 0-4.267 0-102.4 72.533-187.733 166.4-204.8-17.067-4.267-34.133-8.533-55.467-8.533-12.8 0-25.6 0-38.4 4.267 25.6-85.333 102.4-145.067 196.267-145.067-72.533-55.467-162.133-89.6-260.267-89.6-17.067 0-34.133 0-51.2 4.267 93.867-59.733 204.8-93.867 320-93.867 388.267 0 597.333 320 597.333 597.333 0 8.533 0 17.067 0 25.6 42.667 29.867 76.8 68.267 106.667 106.667z" />
<glyph unicode="&#xe975;" glyph-name="twitter-box" d="M896 960h-768c-70.4 0-128-57.6-128-128v-768c0-70.4 57.6-128 128-128h768c70.4 0 128 57.6 128 128v768c0 70.4-57.6 128-128 128zM716.8 553.6c0-3.2 0-9.6 0-12.8 0-137.6-105.6-297.6-297.6-297.6-60.8 0-115.2 16-160 48 9.6 0 16 0 25.6 0 48 0 96 16 131.2 44.8-44.8 0-83.2 32-99.2 73.6 6.4 0 12.8-3.2 19.2-3.2 9.6 0 19.2 0 28.8 3.2-48 9.6-83.2 51.2-83.2 102.4 0 0 0 0 0 0 12.8-6.4 28.8-12.8 48-12.8-28.8 19.2-48 51.2-48 86.4 0 19.2 6.4 38.4 12.8 54.4 51.2-64 128-105.6 217.6-108.8-3.2 6.4-3.2 16-3.2 22.4 0 57.6 48 105.6 105.6 105.6 28.8 0 57.6-12.8 76.8-32 22.4 3.2 48 12.8 67.2 25.6-6.4-25.6-25.6-44.8-44.8-57.6 22.4 3.2 41.6 9.6 60.8 16-19.2-25.6-38.4-44.8-57.6-57.6z" />
<glyph unicode="&#xe976;" glyph-name="whatsapp" d="M2.291-64l72.009 262.942c-44.417 76.947-67.789 164.244-67.753 253.674 0.112 279.772 227.811 507.383 507.581 507.383 135.781-0.054 263.224-52.901 359.054-148.81 95.832-95.91 148.579-223.397 148.527-358.979-0.113-279.772-227.833-507.413-507.574-507.413h-0.209c-84.952 0.035-168.422 21.338-242.559 61.761l-269.076-70.559zM283.833 98.424l15.406-9.141c64.772-38.427 139.022-58.756 214.722-58.786h0.173c232.528 0 421.782 189.195 421.876 421.746 0.043 112.691-43.797 218.654-123.449 298.371s-185.577 123.643-298.26 123.686c-232.706 0-421.962-189.181-422.055-421.717-0.032-79.687 22.272-157.298 64.503-224.447l10.032-15.955-42.62-155.629 159.672 41.872zM387.272 664.728c-10.294 24.723-20.75 21.378-28.535 21.766-7.389 0.368-15.852 0.445-24.307 0.445s-22.194-3.173-33.82-15.865c-11.625-12.693-44.387-43.367-44.387-105.771s45.445-122.692 51.786-131.154c6.341-8.462 89.43-136.525 216.655-191.444 30.258-13.062 53.883-20.862 72.301-26.708 30.384-9.647 58.031-8.287 79.884-5.023 24.366 3.639 75.035 30.673 85.605 60.288 10.568 29.616 10.568 55.001 7.397 60.29-3.169 5.287-11.625 8.461-24.307 14.808-12.683 6.345-75.037 37.020-86.663 41.25s-20.079 6.346-28.534-6.347c-8.454-12.691-32.759-41.25-40.158-49.711-7.397-8.462-14.796-9.521-27.477-3.174-12.683 6.345-53.548 19.735-101.99 62.929-37.701 33.617-63.156 75.139-70.554 87.832s-0.787 19.555 5.562 25.875c5.705 5.68 12.682 14.808 19.023 22.212s8.455 12.692 12.682 21.153c4.228 8.462 2.114 15.866-1.057 22.212s-28.535 68.751-39.104 94.135z" />
<glyph unicode="&#xe977;" glyph-name="whatsapp-box" d="M512 662.4c-115.2 0-211.2-96-211.2-211.2 0-38.4 9.6-80 32-112l6.4-6.4-22.4-76.8 80 22.4 6.4-3.2c32-19.2 70.4-28.8 108.8-28.8v0c115.2 0 211.2 96 211.2 211.2 0 57.6-22.4 108.8-60.8 150.4-38.4 32-92.8 54.4-150.4 54.4zM636.8 358.4c-6.4-16-32-28.8-41.6-28.8-9.6-3.2-25.6-3.2-38.4 3.2-9.6 3.2-22.4 6.4-35.2 12.8-64 28.8-105.6 92.8-108.8 96s-25.6 35.2-25.6 64c0 32 16 48 22.4 54.4s12.8 6.4 16 6.4c3.2 0 9.6 0 12.8 0s9.6 0 12.8-9.6c6.4-12.8 19.2-44.8 19.2-48s3.2-6.4 0-9.6c-3.2-3.2-3.2-6.4-6.4-9.6s-6.4-9.6-9.6-9.6c-3.2-3.2-6.4-6.4-3.2-12.8s16-25.6 35.2-44.8c25.6-22.4 44.8-28.8 51.2-32s9.6-3.2 12.8 0c3.2 3.2 16 19.2 19.2 25.6s9.6 6.4 12.8 3.2c6.4-3.2 38.4-16 44.8-19.2s9.6-3.2 12.8-6.4c3.2-6.4 3.2-19.2-3.2-35.2zM896 960h-768c-70.4 0-128-57.6-128-128v-768c0-70.4 57.6-128 128-128h768c70.4 0 128 57.6 128 128v768c0 70.4-57.6 128-128 128zM512 195.2v0c-41.6 0-83.2 9.6-121.6 32l-134.4-35.2 35.2 131.2c-22.4 38.4-35.2 83.2-35.2 128 3.2 137.6 118.4 252.8 256 252.8 67.2 0 131.2-25.6 179.2-73.6s73.6-112 73.6-179.2c3.2-140.8-112-256-252.8-256z" />
<glyph unicode="&#xe978;" glyph-name="youtube" d="M1015.467 652.8c0 0-8.533 72.533-42.667 102.4-38.4 42.667-81.067 42.667-102.4 42.667-145.067 8.533-358.4 8.533-358.4 8.533v0c0 0-213.333 0-358.4-8.533-21.333-4.267-64-4.267-102.4-42.667-29.867-29.867-42.667-102.4-42.667-102.4s-8.533-81.067-8.533-166.4v-76.8c0-81.067 8.533-166.4 8.533-166.4s8.533-72.533 42.667-102.4c38.4-42.667 89.6-38.4 110.933-42.667 81.067-8.533 349.867-8.533 349.867-8.533s213.333 0 358.4 12.8c21.333 4.267 64 4.267 102.4 42.667 29.867 29.867 42.667 102.4 42.667 102.4s8.533 81.067 8.533 166.4v76.8c0 81.067-8.533 162.133-8.533 162.133zM405.333 315.733v285.867l277.333-145.067-277.333-140.8z" />
<glyph unicode="&#xe979;" glyph-name="youtube-box" d="M896 960h-768c-70.4 0-128-57.6-128-128v-768c0-70.4 57.6-128 128-128h768c70.4 0 128 57.6 128 128v768c0 70.4-57.6 128-128 128zM768 428.8c0-41.6-6.4-83.2-6.4-83.2s-6.4-35.2-19.2-51.2c-19.2-19.2-41.6-19.2-51.2-22.4-70.4-6.4-179.2-6.4-179.2-6.4s-134.4 0-172.8 6.4c-12.8 3.2-38.4 0-57.6 22.4-16 16-19.2 51.2-19.2 51.2s-6.4 41.6-6.4 83.2v38.4c0 41.6 6.4 83.2 6.4 83.2s6.4 35.2 19.2 51.2c19.2 19.2 41.6 19.2 51.2 22.4 70.4 6.4 179.2 6.4 179.2 6.4v0c0 0 108.8 0 179.2-6.4 9.6 0 32 0 51.2-22.4 16-16 19.2-51.2 19.2-51.2s6.4-41.6 6.4-83.2v-38.4zM457.6 380.8l140.8 73.6-140.8 70.4z" />
<glyph unicode="&#xe97a;" glyph-name="more" d="M640 448c0-70.692-57.308-128-128-128s-128 57.308-128 128c0 70.692 57.308 128 128 128s128-57.308 128-128zM256 448c0-70.692-57.308-128-128-128s-128 57.308-128 128c0 70.692 57.308 128 128 128s128-57.308 128-128zM1024 448c0-70.692-57.308-128-128-128s-128 57.308-128 128c0 70.692 57.308 128 128 128s128-57.308 128-128z" />
<glyph unicode="&#xe97b;" glyph-name="share" d="M810.667 362.667c-68.267 0-128-29.867-166.4-81.067l-226.133 110.933c4.267 21.333 8.533 38.4 8.533 55.467s-4.267 38.4-8.533 55.467l226.133 110.933c38.4-46.933 98.133-81.067 166.4-81.067 119.467 0 213.333 93.867 213.333 213.333s-93.867 213.333-213.333 213.333-213.333-93.867-213.333-213.333c0-17.067 4.267-38.4 8.533-55.467l-226.133-110.933c-38.4 46.933-98.133 81.067-166.4 81.067-119.467 0-213.333-93.867-213.333-213.333s93.867-213.333 213.333-213.333c68.267 0 128 34.133 166.4 85.333l226.133-110.933c-4.267-21.333-8.533-38.4-8.533-59.733 0-119.467 93.867-213.333 213.333-213.333s213.333 93.867 213.333 213.333-93.867 213.333-213.333 213.333z" />
<glyph unicode="&#xe97c;" glyph-name="delete" d="M213.333 21.333v768h-85.333v-853.333h768v853.333h-85.333v-768zM0 704h1024v85.333h-1024zM469.333 533.333v-341.333h85.333v341.333zM298.667 533.333v-341.333h85.333v341.333zM640 533.333v-341.333h85.333v341.333zM384 874.667h256v-170.667h85.333v256h-426.667v-256h85.333z" />
<glyph unicode="&#xe97e;" glyph-name="clock" d="M512 960c-283.927 0-512-228.073-512-512s228.073-512 512-512 512 228.073 512 512-228.073 512-512 512zM558.545 33.745v107.055h-93.091v-107.055c-195.491 23.273-349.091 176.873-367.709 367.709h107.055v93.091h-107.055c18.618 195.491 172.218 349.091 367.709 367.709v-107.055h93.091v107.055c195.491-23.273 349.091-176.873 367.709-367.709h-107.055v-93.091h107.055c-18.618-195.491-172.218-349.091-367.709-367.709zM335.127 759.855l-74.473-55.855 228.073-302.545h256v93.091h-209.455z" />
<glyph unicode="&#xe97f;" glyph-name="building" d="M853.333 405.333v554.667h-682.667v-554.667h-170.667v-469.333h1024v469.333h-170.667zM85.333 21.333v298.667h85.333v-298.667h-85.333zM554.667 21.333v85.333h-85.333v-85.333h-213.333v853.333h512v-853.333h-213.333zM938.667 21.333h-85.333v298.667h85.333v-298.667zM341.333 789.333h128v-85.333h-128v85.333zM554.667 789.333h128v-85.333h-128v85.333zM341.333 618.667h128v-85.333h-128v85.333zM554.667 618.667h128v-85.333h-128v85.333zM341.333 448h128v-85.333h-128v85.333zM554.667 448h128v-85.333h-128v85.333zM341.333 277.333h128v-85.333h-128v85.333zM554.667 277.333h128v-85.333h-128v85.333z" />
</font>
</defs>
</svg>
